<svg xmlns="http://www.w3.org/2000/svg" xmlns:xlink="http://www.w3.org/1999/xlink" width="40" height="40" viewBox="0 0 40 40"><defs><path id="4pq2a" d="M34.328 180.27h7.826l.832 2.497h-1.448v7.905h13.984v-7.905h-2.15l-7.236-21.768h2.05v-7.961H28.507v7.96h1.83l-7.236 21.769h-2.204v7.905h13.983v-7.905H33.42l.908-2.497zm-.893 3.89v5.069h-11.09v-5.07h1.737l8.15-24.607h-2.277v-5.068h16.84v5.068h-2.55l8.147 24.607h1.739v5.07H42.985v-5.07h1.948l-1.743-5.28h-9.96l-1.743 5.28z"/><path id="4pq2b" d="M46.104 158.865v-3.691h-1.722l-.962 3.691h2.684"/><path id="4pq2c" d="M56.852 189.325h.477v1.306h.334v-1.306h.474v-.281h-1.285v.28"/><path id="4pq2d" d="M59.384 189.044l-.287 1.247-.288-1.247h-.483v1.587h.309v-1.074l-.001-.13-.001-.128.298 1.332h.322l.301-1.332v.129l-.002.13v1.073h.309v-1.587h-.477"/><path id="4pq2e" d="M44.331 155.174H30.644v3.691h2.541l-1.788 5.398 5.556 2.191 7.378-11.28"/><path id="4pq2f" d="M40.96 168.304l6.58 3.398-4.178-12.616-2.402 9.218"/><path id="4pq2g" d="M39.652 178.19h4.034l2.198 6.657h-2.211v3.69h9.768v-3.69h-1.548l-4.214-12.725-7.238.493-.789 5.575"/><path id="4pq2h" d="M32.733 178.19h6.592l-3.08-4.77-6.752 1.319 4.605-5.094-2.815-5.039-6.703 20.24h-1.546v3.69h9.713v-3.69h-2.213l2.199-6.656"/><path id="4pq2i" d="M40.155 168.661l2.534-9.721-5.469 8.36-4.673-1.843 2.392 4.282-3.549 3.927 5.18-1.012 2.6 4.027.668-4.716 5.927-.405-5.61-2.899"/><path id="4pq2j" d="M35.572 182.076h-1.167l.406-1.116h6.847l.373 1.116h-1.18v9.285h15.36v-9.285h-2.34l-6.78-20.39h1.784v-9.338H27.82v9.339h1.564l-6.779 20.389H20.21v9.285h15.362v-9.285zm-.69 8.595H20.899v-7.905h2.203l7.237-21.768h-1.83v-7.96h19.677v7.96h-2.05l7.237 21.768h2.15v7.905H41.538v-7.905h1.449l-.833-2.497H34.33l-.909 2.497h1.462z"/><path id="4pq2k" d="M33.23 178.879l-1.744 5.28h1.949v5.07H22.344v-5.07h1.737l8.15-24.607h-2.277v-5.068h16.84v5.068h-2.55l8.147 24.607h1.739v5.07H42.984v-5.07h1.948l-1.743-5.28zm14.449-6.757l-7.238.493-.789 5.575h4.034l2.198 6.657h-2.211v3.69h9.768v-3.69h-1.548zm-7.841-.155l5.927-.405-5.61-2.9 2.534-9.722-5.469 8.362-4.673-1.844 2.392 4.283-3.549 3.927 5.18-1.012 2.6 4.027zm3.524-12.882l-2.402 9.218 6.58 3.398zm1.02-3.912l-.962 3.69h2.684v-3.69zm-12.987 9.09l5.556 2.19 7.379-11.28H30.643v3.692h2.54zm-.862 20.584l2.199-6.657h6.592l-3.08-4.77-6.753 1.32 4.606-5.095-2.815-5.039-6.703 20.24h-1.546v3.69h9.713v-3.69z"/></defs><g><g transform="translate(-20 -152)"><g><use fill="#0f182b" xlink:href="#4pq2a"/></g><g><use fill="#0f182b" xlink:href="#4pq2b"/></g><g><use fill="#0f182b" xlink:href="#4pq2c"/></g><g><use fill="#0f182b" xlink:href="#4pq2d"/></g><g><use fill="#0f182b" xlink:href="#4pq2e"/></g><g><use fill="#0f182b" xlink:href="#4pq2f"/></g><g><use fill="#0f182b" xlink:href="#4pq2g"/></g><g><use fill="#0f182b" xlink:href="#4pq2h"/></g><g><use fill="#cf2a2b" xlink:href="#4pq2i"/></g><g><use fill="#fffffe" xlink:href="#4pq2j"/></g><g><use fill="#fffffe" xlink:href="#4pq2k"/></g></g></g></svg>