<svg xmlns="http://www.w3.org/2000/svg" width="125" height="36" viewBox="0 0 125 36"><g fill="none" fill-rule="evenodd"><path fill="#1B3CA4" d="M64.765 17.93l3.023-9.184c.616-1.325 1.912-2.167 3.531-2.167h12.347L93.377.182H72.065c-1.497 0-9.066.18-10.976 5.97l-4.412 13.393c-1.3 5.028 2.095 8.176 6.732 8.176h19.632l2.11-6.396H68.58c-2.596 0-4.45-1.027-3.816-3.396m31.623 0l3.022-9.183c.617-1.325 1.912-2.167 3.532-2.167h12.346L125 .182h-21.313c-1.497 0-9.065.18-10.975 5.97L88.3 19.545c-1.3 5.028 2.095 8.176 6.732 8.176h19.631l2.11-6.396h-16.57c-2.596 0-4.45-1.027-3.815-3.396m-51.342-.523H34.698L48.052 7.125l-3.006 10.28zM46.28.177L10.69 27.726h10.534l5.827-4.457 17.547-4.332-2.566 8.78 8.148-.018L57.874.177H46.28z"/><path fill="#A0A29F" d="M112.1 36l1.534-4.655H6.015L0 36h112.1M115.927 33.829v.259h-.732V36h-.299v-1.912h-.732v-.259h1.763M116.361 33.83h.423l.625 1.834.62-1.835h.419V36h-.281v-1.28c0-.046 0-.118.004-.221l.002-.329-.62 1.83h-.292l-.627-1.83v.067c0 .052.002.134.005.242.004.11.004.19.004.24V36h-.282v-2.17"/></g></svg>