<svg xmlns="http://www.w3.org/2000/svg" xmlns:xlink="http://www.w3.org/1999/xlink" width="444" height="165" viewBox="0 0 444 165"><defs><path id="9e8ba" d="M261.88 122.49h-19.2V.5h-72.37V42h19.2v80.49h-19.2v41.5h91.57v-41.5"/><path id="9e8bb" d="M429.24 56.22V41.88A41.39 41.39 0 0 0 387.86.51H308.1a41.38 41.38 0 0 0-41.38 41.37v80.75A41.37 41.37 0 0 0 308.09 164h79.77a41.38 41.38 0 0 0 41.38-41.36V67.46h-67.3v29.59h13.97V117a5.44 5.44 0 0 1-5.45 5.45h-44.98c-3.01 0-5.45-2.44-5.45-5.45V47.42a5.44 5.44 0 0 1 5.45-5.45h44.98a5.44 5.44 0 0 1 5.45 5.45v8.8h53.33"/><path id="9e8bc" d="M134.43 80.43a42.6 42.6 0 0 1 31.05 40.98 42.6 42.6 0 0 1-42.59 42.6H0V122.5h19.2V42H0V.5h118.54v.02a41.46 41.46 0 0 1 15.9 79.66zM72.38 65.65h29.8c1.5 0 2.74-1.23 2.74-2.75V44.76a2.75 2.75 0 0 0-2.75-2.75H72.38zm34.02 32.32a2.74 2.74 0 0 0-2.74-2.74H72.38v27.27h31.28a2.74 2.74 0 0 0 2.74-2.75z"/><path id="9e8bd" d="M435.82 149.84a7.44 7.44 0 0 1 7.53 7.56 7.5 7.5 0 0 1-7.57 7.6 7.45 7.45 0 0 1-7.54-7.56c0-4.24 3.32-7.6 7.58-7.6zm6.28 7.6a6.3 6.3 0 0 0-6.32-6.45c-3.6 0-6.3 2.8-6.3 6.41a6.3 6.3 0 0 0 6.34 6.46c3.58 0 6.28-2.8 6.28-6.42zm-9.2-4.3h3.06c1.96 0 3.1.85 3.1 2.53 0 1.3-.67 1.99-1.68 2.32l1.8 3.42h-1.68l-1.66-3.22h-1.38v3.22h-1.56v-8.27zm2.98 3.87c1.05 0 1.64-.36 1.64-1.27 0-.87-.6-1.22-1.66-1.22h-1.4v2.49z"/></defs><g><g><g><use fill="#0085ca" xlink:href="#9e8ba"/></g><g><use fill="#0085ca" xlink:href="#9e8bb"/></g><g><use xlink:href="#9e8bc"/></g><g><use fill="#0085ca" xlink:href="#9e8bd"/></g></g></g></svg>