<?xml version="1.0" encoding="UTF-8"?>
<svg width="200px" height="37px" viewBox="0 0 200 37" version="1.1" xmlns="http://www.w3.org/2000/svg" xmlns:xlink="http://www.w3.org/1999/xlink">
    <!-- Generator: Sketch 63.1 (92452) - https://sketch.com -->
    <title>logo_main</title>
    <desc>Created with Sketch.</desc>
    <defs>
        <polygon id="path-1" points="0.0196641904 0.301459016 87.5163636 0.301459016 87.5163636 36.9636066 0.0196641904 36.9636066"></polygon>
        <polygon id="path-3" points="0 0.301459016 116.998788 0.301459016 116.998788 36.9636066 0 36.9636066"></polygon>
        <polygon id="path-5" points="0.0806060606 0.487672131 172.352727 0.487672131 172.352727 29.684918 0.0806060606 29.684918"></polygon>
    </defs>
    <g id="exports" stroke="none" stroke-width="1" fill="none" fill-rule="evenodd">
        <g id="3" transform="translate(-252.000000, -42.000000)">
            <g id="headertop">
                <g id="logo/primary" transform="translate(252.000000, 40.000000)">
                    <g id="C-USA-PMS-Flat" transform="translate(0.000000, 2.000000)">
                        <g id="Group-5" transform="translate(106.666667, 0.000000)">
                            <mask id="mask-2" fill="white">
                                <use xlink:href="#path-1"></use>
                            </mask>
                            <g id="Clip-2"></g>
                            <path d="M84.8987879,1.76447541 L86.0060606,35.5218197 L75.9066667,35.5218197 L75.6478788,27.602 L60.6654545,27.602 L54.6915152,35.5218197 L43.1090909,35.5218197 L68.5763636,1.76447541 L84.8987879,1.76447541 Z M40.1727273,36.9854426 L55.4193939,36.9854426 L55.8575758,36.4031475 L61.3933333,29.0650164 L74.2333333,29.0650164 L74.4915152,36.9854426 L87.5163636,36.9854426 L86.3133333,0.301459016 L67.8484848,0.301459016 L67.409697,0.882540984 L40.1727273,36.9854426 L40.1727273,36.9854426 Z" id="Fill-1" fill="#B4B5B4" mask="url(#mask-2)"></path>
                            <path d="M68.1757576,20.074623 L73.6981818,12.754082 L73.9387879,20.074623 L68.1757576,20.074623 Z M75.4490909,21.5370328 L75.0230303,8.57004918 L65.2406061,21.5370328 L75.4490909,21.5370328 L75.4490909,21.5370328 Z" id="Fill-3" fill="#B4B5B4" mask="url(#mask-2)"></path>
                            <path d="M18.5333333,1.76508197 L49.8860606,1.76508197 C52.5133333,1.76508197 51.7854545,3.28572131 51.1212121,4.81545902 L49.749697,7.86583607 L49.7460606,7.86583607 L48.7751515,9.98272131 L41.2339394,9.98272131 L42.0569697,7.86583607 L23.6145455,7.86583607 L20.2139394,15.4205082 L46.3509091,15.4205082 L38.6763636,32.4714426 C37.989697,33.9969344 37.3036364,35.5212131 34.6945455,35.5212131 L3.3430303,35.5212131 C0.712727273,35.5212131 1.4430303,34.0011803 2.10606061,32.4714426 L3.46787879,29.446541 L4.28181818,27.3448197 L11.9727273,27.3448197 L11.02,29.4216721 L29.6115152,29.4216721 L33.1678788,21.5200492 L7.03333333,21.5200492 L14.550303,4.81545902 C15.2375758,3.29057377 15.9236364,1.76508197 18.5333333,1.76508197 Z M4.77272727,22.9836721 L30.9066667,22.9836721 L28.6672727,27.9586557 L13.3,27.9586557 L13.3006061,27.955623 L14.2527273,25.8818033 L3.28242424,25.8818033 L2.91939394,26.8152951 L2.11878788,28.8800164 L0.773333333,31.8715574 L0.715151515,32.0062131 C0.22,33.1404754 -0.392727273,34.5531475 0.403030303,35.7699016 C1.19939394,36.9842295 2.81212121,36.9842295 3.3430303,36.9842295 L34.6945455,36.9842295 C38.2466667,36.9842295 39.3066667,34.632 40.0084848,33.0743607 L48.6115152,13.9574918 L22.4757576,13.9574918 L24.5593939,9.3282459 L39.92,9.3282459 L39.8715152,9.45259016 L39.0975758,11.4457377 L49.7115152,11.4457377 L50.1036364,10.5935246 L50.6836364,9.3282459 L50.6915152,9.3282459 L51.0830303,8.46511475 L52.4539394,5.4147377 L52.509697,5.28796721 C53.0048485,4.15067213 53.6212121,2.73618033 52.8248485,1.51760656 C52.0290909,0.302065574 50.4169697,0.302065574 49.8860606,0.302065574 L18.5333333,0.302065574 C14.9824242,0.302065574 13.9218182,2.65368852 13.22,4.2095082 L4.77272727,22.9836721 L4.77272727,22.9836721 Z" id="Fill-4" fill="#B4B5B4" mask="url(#mask-2)"></path>
                        </g>
                        <path d="M10.4078788,13.4764918 L20.7224242,13.7391311 L22.3872727,10.0409508 C22.3872727,10.0409508 23.36,7.86401639 25.3157576,7.86401639 L41.8690909,7.86401639 L41.0478788,9.98272131 L48.5884848,9.98272131 L49.5593939,7.86401639 L49.5630303,7.86401639 L52.36,1.76447541 L18.2848485,1.76447541 C15.6757576,1.76447541 14.989697,3.29057377 14.3036364,4.8142459 L10.4078788,13.4764918" id="Fill-6" fill="#004772"></path>
                        <g id="Group-10">
                            <mask id="mask-4" fill="white">
                                <use xlink:href="#path-3"></use>
                            </mask>
                            <g id="Clip-8"></g>
                            <path d="M10.3272727,13.6554262 L1.73636364,32.7583443 C1.52363636,33.3188033 0.727272727,35.5212131 3.44727273,35.5212131 L36.6842424,35.5212131 L39.4866667,29.4216721 L39.4842424,29.4216721 L40.4369697,27.3448197 L32.7460606,27.3448197 L31.9406061,29.4216721 L17.4163636,29.4216721 C14.9878788,29.4216721 14.7060606,27.1191803 15.3133333,25.7580656 L20.0181818,15.3046557 L10.3272727,13.6554262" id="Fill-7" fill="#004772" mask="url(#mask-4)"></path>
                            <path d="M88.6393939,1.76447541 L77.6769697,26.122 C77.6769697,26.122 76.1945455,29.4216721 79.3357576,29.4216721 L88.7127273,29.4216721 C91.8557576,29.4216721 93.34,26.122 93.34,26.122 L104.301818,1.76447541 L114.73697,1.76447541 L102.292121,29.4216721 C100.920606,32.4714426 99.5575758,35.5212131 94.3284848,35.5212131 L68.229697,35.5212131 C63.0181818,35.5212131 64.3836364,32.4714426 65.7575758,29.4216721 L69.3024242,21.5443115 L73.1242424,20.2808525 L70.1806061,19.5924098 L78.2030303,1.76447541 L88.6393939,1.76447541 Z M58.3618182,7.76636066 L59.1012121,18.6182787 C62.1527273,19.1617541 65.2242424,19.784082 68.2606061,20.4949672 L59.4290909,23.4143279 L59.9866667,31.6022459 C59.9866667,31.6022459 51.7824242,19.3789016 27.3533333,15.2203443 C33.2018182,15.3701639 41.5824242,15.8820984 51.2490909,17.363918 L58.3618182,7.76636066 Z M15.3133333,25.7580656 C14.7060606,27.1191803 14.9878788,29.4216721 17.4163636,29.4216721 L31.9406061,29.4216721 L32.7460606,27.3448197 L40.4369697,27.3448197 L39.4842424,29.4216721 L39.4866667,29.4216721 L36.6842424,35.5212131 L3.44727273,35.5212131 C0.727272727,35.5212131 1.52363636,33.3188033 1.73636364,32.7583443 L10.3272727,13.6554262 L20.0181818,15.3046557 L15.3133333,25.7580656 Z M18.2848485,1.76447541 L52.36,1.76447541 L49.5630303,7.86401639 L49.5593939,7.86401639 L48.5884848,9.98272131 L41.0478788,9.98272131 L41.8690909,7.86401639 L25.3157576,7.86401639 C23.36,7.86401639 22.3872727,10.0409508 22.3872727,10.0409508 L20.7224242,13.7391311 L10.4078788,13.4764918 L14.3036364,4.8142459 C14.989697,3.29057377 15.6757576,1.76447541 18.2848485,1.76447541 Z M3.44727273,36.9842295 L37.6206061,36.9842295 L38.0121212,36.132623 L41.7672727,27.9586557 L41.7636364,27.9586557 L41.7654545,27.955623 L42.7157576,25.8818033 L31.7460606,25.8818033 L30.9406061,27.9586557 L17.4163636,27.9586557 C16.8272727,27.9586557 16.6909091,27.7481803 16.6460606,27.6796393 C16.4533333,27.3824262 16.4545455,26.788 16.6478788,26.354918 L21.5072727,15.5581967 L27.0927273,16.5086721 C39.3454545,18.594623 47.3066667,22.7768361 51.8284848,25.9188033 C56.7206061,29.3161311 58.7509091,32.2627869 58.7709091,32.2912951 L61.7642424,36.698541 L60.9230303,24.3138525 L67.4193939,22.1666393 L64.4248485,28.8205738 C63.4212121,31.0502787 62.3830303,33.3551967 63.5666667,35.1888197 C64.3466667,36.397082 65.8721212,36.9842295 68.229697,36.9842295 L94.3284848,36.9842295 C100.493333,36.9842295 102.226667,33.131377 103.618788,30.0367213 L116.998788,0.301459016 L103.35697,0.301459016 L102.968485,1.16277049 L92.0078788,25.5209016 C92,25.5384918 90.8515152,27.9586557 88.7127273,27.9586557 L79.3357576,27.9586557 C79.010303,27.9586557 78.8569697,27.9058852 78.8054545,27.8834426 C78.7412121,27.6808525 78.8406061,27.1119016 79.0139394,26.714 L90.9006061,0.301459016 L77.2587879,0.301459016 L68.730303,19.2527377 L68.6145455,19.2248361 C66.0048485,18.6146393 63.2666667,18.0444754 60.4593939,17.5289016 L59.5284848,3.85891803 L50.58,15.9342623 C40.9684848,14.5088525 32.7,14.0454426 27.3933333,13.9101803 L22.3078788,13.780377 L23.72,10.6420492 C23.7230303,10.6347705 24.3606061,9.32703279 25.3157576,9.32703279 L39.7333333,9.32703279 L39.6848485,9.45319672 L38.9115152,11.4457377 L49.5254545,11.4457377 L50.4969697,9.32703279 L50.8915152,8.47481967 L54.6387879,0.301459016 L18.2848485,0.301459016 C14.7339394,0.301459016 13.6733333,2.65368852 12.9721212,4.2095082 L0.403636364,32.158459 L0.385454545,32.1972787 L0.37030303,32.237918 C-0.162424242,33.638459 -0.12,34.7994098 0.494545455,35.6928689 C0.900606061,36.2818361 1.74181818,36.9842295 3.44727273,36.9842295 L3.44727273,36.9842295 Z" id="Fill-9" fill="#B4B5B4" mask="url(#mask-4)"></path>
                        </g>
                        <path d="M182.115758,21.5370328 L171.907273,21.5370328 L181.689697,8.57004918 L182.115758,21.5370328 Z M161.358182,35.5218197 L167.332121,27.602 L182.314545,27.602 L182.573333,35.5218197 L192.672727,35.5218197 L191.565455,1.76447541 L175.24303,1.76447541 L149.775758,35.5218197 L161.358182,35.5218197 L161.358182,35.5218197 Z" id="Fill-11" fill="#AC162C"></path>
                        <path d="M113.7,21.5200492 L139.834545,21.5200492 L136.278182,29.4216721 L117.686667,29.4216721 L118.639394,27.3448197 L110.948485,27.3448197 L110.134545,29.446541 L108.772727,32.4714426 C108.109697,34.0011803 107.379394,35.5212131 110.009697,35.5212131 L141.361212,35.5212131 C143.970303,35.5212131 144.656364,33.9969344 145.34303,32.4714426 L153.017576,15.4205082 L126.880606,15.4205082 L130.281212,7.86583607 L148.723636,7.86583607 L147.900606,9.98272131 L155.441818,9.98272131 L156.412727,7.86583607 L156.416364,7.86583607 L157.787879,4.81545902 C158.452121,3.28572131 159.18,1.76508197 156.552727,1.76508197 L125.2,1.76508197 C122.590303,1.76508197 121.904242,3.29057377 121.21697,4.81545902 L113.7,21.5200492" id="Fill-12" fill="#AC162C"></path>
                        <path d="M73.1242424,20.2808525 L69.3024242,21.5443115 L65.7575758,29.4216721 C64.3836364,32.4714426 63.0181818,35.5212131 68.229697,35.5212131 L94.3284848,35.5212131 C99.5575758,35.5212131 100.920606,32.4714426 102.292121,29.4216721 L114.73697,1.76447541 L104.301818,1.76447541 L93.34,26.122 C93.34,26.122 91.8557576,29.4216721 88.7127273,29.4216721 L79.3357576,29.4216721 C76.1945455,29.4216721 77.6769697,26.122 77.6769697,26.122 L88.6393939,1.76447541 L78.2030303,1.76447541 L70.1806061,19.5924098 L73.1242424,20.2808525" id="Fill-13" fill="#AC162C"></path>
                        <g id="Group-18" transform="translate(27.272727, 7.278689)">
                            <mask id="mask-6" fill="white">
                                <use xlink:href="#path-5"></use>
                            </mask>
                            <g id="Clip-15"></g>
                            <path d="M32.7139394,24.3235574 L32.1563636,16.1356393 L40.9878788,13.2162787 C37.9515152,12.5053934 34.88,11.8830656 31.8284848,11.3395902 L31.0890909,0.487672131 L23.9763636,10.0852295 C14.309697,8.60340984 5.92909091,8.09147541 0.0806060606,7.94165574 C24.509697,12.1002131 32.7139394,24.3235574 32.7139394,24.3235574" id="Fill-14" fill="#777776" mask="url(#mask-6)"></path>
                            <polyline id="Fill-16" fill="#B4B5B4" mask="url(#mask-6)" points="171.665455 27.8658525 170.731515 28.9570492 170.754545 27.8658525 170.047273 27.8658525 169.25697 29.7213115 169.690909 29.7213115 170.333939 28.2212951 170.278182 29.7213115 170.531515 29.7213115 171.772121 28.2212951 171.133939 29.7213115 171.55697 29.7213115 172.352727 27.8658525 171.665455 27.8658525"></polyline>
                            <polyline id="Fill-17" fill="#B4B5B4" mask="url(#mask-6)" points="169.809091 27.8658525 168.116364 27.8658525 167.969091 28.2212951 168.570909 28.2212951 167.933939 29.7213115 168.411515 29.7213115 169.049697 28.2212951 169.652121 28.2212951 169.809091 27.8658525"></polyline>
                        </g>
                    </g>
                </g>
            </g>
        </g>
    </g>
</svg>