<svg id="svg" version="1.1" xmlns="http://www.w3.org/2000/svg" xmlns:xlink="http://www.w3.org/1999/xlink" width="400" height="422.35294117647055" viewBox="0, 0, 400,422.35294117647055"><g id="svgg"><path id="path0" d="M197.390 3.467 C 197.097 3.760,196.394 4.000,195.829 4.000 C 195.181 4.000,194.800 4.222,194.800 4.600 C 194.800 5.034,194.354 5.200,193.187 5.200 C 192.123 5.200,191.497 5.404,191.345 5.800 C 191.213 6.142,190.617 6.400,189.957 6.400 C 189.195 6.400,188.800 6.605,188.800 7.000 C 188.800 7.434,188.354 7.600,187.187 7.600 C 186.123 7.600,185.497 7.804,185.345 8.200 C 185.217 8.534,184.622 8.800,184.006 8.800 C 183.397 8.800,182.674 9.070,182.400 9.400 C 182.126 9.730,181.384 10.000,180.751 10.000 C 179.995 10.000,179.600 10.206,179.600 10.600 C 179.600 10.997,179.203 11.200,178.429 11.200 C 177.784 11.200,176.987 11.470,176.657 11.800 C 176.327 12.130,175.504 12.400,174.829 12.400 C 174.003 12.400,173.600 12.597,173.600 13.000 C 173.600 13.420,173.176 13.600,172.187 13.600 C 171.301 13.600,170.689 13.823,170.545 14.200 C 170.403 14.570,169.795 14.800,168.957 14.800 C 168.017 14.800,167.600 14.985,167.600 15.400 C 167.600 15.833,167.156 16.000,166.000 16.000 C 164.844 16.000,164.400 16.167,164.400 16.600 C 164.400 17.001,163.999 17.200,163.187 17.200 C 162.479 17.200,161.879 17.449,161.745 17.800 C 161.595 18.191,160.972 18.400,159.957 18.400 C 158.840 18.400,158.400 18.569,158.400 19.000 C 158.400 19.400,158.000 19.600,157.200 19.600 C 156.540 19.600,156.000 19.760,156.000 19.955 C 156.000 20.150,155.190 20.431,154.200 20.579 C 153.210 20.728,152.400 21.018,152.400 21.225 C 152.400 21.431,151.944 21.600,151.387 21.600 C 150.831 21.600,150.271 21.870,150.145 22.200 C 150.004 22.567,149.398 22.800,148.586 22.800 C 147.855 22.800,146.987 23.070,146.657 23.400 C 146.327 23.730,145.679 24.000,145.216 24.000 C 144.753 24.000,144.271 24.270,144.145 24.600 C 143.995 24.991,143.372 25.200,142.357 25.200 C 141.240 25.200,140.800 25.369,140.800 25.800 C 140.800 26.200,140.400 26.400,139.600 26.400 C 138.800 26.400,138.400 26.600,138.400 27.000 C 138.400 27.444,137.933 27.600,136.600 27.600 C 135.267 27.600,134.800 27.756,134.800 28.200 C 134.800 28.594,134.405 28.800,133.649 28.800 C 133.016 28.800,132.274 29.070,132.000 29.400 C 131.726 29.730,130.894 30.000,130.151 30.000 C 129.217 30.000,128.800 30.185,128.800 30.600 C 128.800 30.994,128.405 31.200,127.649 31.200 C 127.016 31.200,126.274 31.470,126.000 31.800 C 125.726 32.130,124.978 32.400,124.338 32.400 C 123.673 32.400,123.076 32.657,122.945 33.000 C 122.815 33.337,122.220 33.600,121.586 33.600 C 120.965 33.600,120.187 33.870,119.857 34.200 C 119.527 34.530,118.794 34.800,118.229 34.800 C 117.581 34.800,117.200 35.022,117.200 35.400 C 117.200 35.834,116.754 36.000,115.587 36.000 C 114.523 36.000,113.897 36.204,113.745 36.600 C 113.613 36.942,113.017 37.200,112.357 37.200 C 111.595 37.200,111.200 37.405,111.200 37.800 C 111.200 38.232,110.758 38.400,109.624 38.400 C 108.757 38.400,107.936 38.580,107.800 38.800 C 107.664 39.020,107.216 39.200,106.805 39.200 C 106.394 39.200,105.787 39.470,105.457 39.800 C 105.127 40.130,104.499 40.400,104.061 40.400 C 103.090 40.400,101.600 42.669,101.600 44.147 C 101.600 44.726,101.431 45.200,101.225 45.200 C 101.018 45.200,100.728 46.010,100.579 47.000 C 100.431 47.990,100.150 48.800,99.955 48.800 C 99.760 48.800,99.600 49.408,99.600 50.151 C 99.600 50.894,99.330 51.726,99.000 52.000 C 98.670 52.274,98.400 52.997,98.400 53.606 C 98.400 54.222,98.134 54.817,97.800 54.945 C 97.128 55.202,96.980 57.017,97.600 57.400 C 98.203 57.772,98.080 60.141,97.413 61.024 C 97.090 61.451,96.820 62.259,96.813 62.820 C 96.806 63.381,96.606 64.034,96.369 64.271 C 96.132 64.508,95.788 65.309,95.604 66.051 C 95.181 67.759,94.413 69.966,93.882 70.997 C 93.657 71.435,93.337 72.335,93.171 72.997 C 92.864 74.224,92.143 76.362,91.551 77.800 C 91.037 79.050,89.969 82.116,89.740 83.000 C 89.626 83.440,89.386 84.160,89.206 84.600 C 89.026 85.040,88.486 86.570,88.007 88.000 C 87.528 89.430,86.970 90.913,86.768 91.295 C 86.566 91.677,86.400 92.170,86.400 92.391 C 86.400 94.595,83.880 97.626,83.317 96.100 C 83.175 95.715,82.945 95.310,82.808 95.200 C 82.670 95.090,82.183 94.280,81.727 93.400 C 80.211 90.475,79.402 89.003,79.200 88.799 C 79.010 88.608,77.802 86.430,76.427 83.800 C 76.082 83.140,75.710 82.510,75.600 82.400 C 75.490 82.290,75.066 81.570,74.658 80.800 C 73.959 79.480,71.740 75.408,70.516 73.200 C 70.212 72.650,69.345 71.120,68.591 69.800 C 67.837 68.480,66.811 66.590,66.310 65.600 C 65.810 64.610,65.175 63.562,64.900 63.271 C 64.625 62.981,64.400 62.508,64.400 62.220 C 64.400 61.933,64.130 61.474,63.800 61.200 C 63.470 60.926,63.200 60.364,63.200 59.951 C 63.200 59.538,63.023 59.200,62.808 59.200 C 62.592 59.200,62.302 58.750,62.164 58.200 C 61.918 57.219,59.600 56.636,59.600 57.555 C 59.600 57.750,58.790 58.031,57.800 58.179 C 56.810 58.328,56.000 58.618,56.000 58.825 C 56.000 59.031,55.473 59.200,54.829 59.200 C 54.184 59.200,53.387 59.470,53.057 59.800 C 52.727 60.130,51.989 60.400,51.416 60.400 C 50.843 60.400,50.271 60.670,50.145 61.000 C 50.004 61.367,49.398 61.600,48.586 61.600 C 47.855 61.600,46.987 61.870,46.657 62.200 C 46.327 62.530,45.616 62.800,45.078 62.800 C 44.539 62.800,43.874 63.070,43.600 63.400 C 43.326 63.730,42.584 64.000,41.951 64.000 C 41.195 64.000,40.800 64.206,40.800 64.600 C 40.800 65.034,40.354 65.200,39.187 65.200 C 38.123 65.200,37.497 65.404,37.345 65.800 C 37.215 66.137,36.620 66.400,35.986 66.400 C 35.365 66.400,34.587 66.670,34.257 67.000 C 33.927 67.330,33.104 67.600,32.429 67.600 C 31.603 67.600,31.200 67.797,31.200 68.200 C 31.200 68.634,30.754 68.800,29.587 68.800 C 28.523 68.800,27.897 69.004,27.745 69.400 C 27.613 69.742,27.017 70.000,26.357 70.000 C 25.595 70.000,25.200 70.205,25.200 70.600 C 25.200 71.031,24.760 71.200,23.643 71.200 C 22.628 71.200,22.005 71.409,21.855 71.800 C 21.703 72.196,21.077 72.400,20.013 72.400 C 18.846 72.400,18.400 72.566,18.400 73.000 C 18.400 73.400,18.000 73.600,17.200 73.600 C 16.400 73.600,16.000 73.800,16.000 74.200 C 16.000 74.644,15.533 74.800,14.200 74.800 C 12.867 74.800,12.400 74.956,12.400 75.400 C 12.400 75.815,11.983 76.000,11.049 76.000 C 10.306 76.000,9.474 76.270,9.200 76.600 C 8.926 76.930,8.184 77.200,7.551 77.200 C 6.918 77.200,6.400 77.380,6.400 77.600 C 6.400 77.820,6.022 78.000,5.560 78.000 C 3.123 78.000,0.742 80.383,2.151 81.414 C 2.508 81.675,2.800 82.363,2.800 82.944 C 2.800 83.616,3.018 84.000,3.400 84.000 C 3.795 84.000,4.000 84.395,4.000 85.157 C 4.000 85.817,4.258 86.413,4.600 86.545 C 4.930 86.671,5.200 87.211,5.200 87.745 C 5.200 88.278,5.470 88.818,5.800 88.945 C 6.130 89.071,6.400 89.609,6.400 90.138 C 6.400 90.668,6.670 91.326,7.000 91.600 C 7.330 91.874,7.600 92.414,7.600 92.800 C 7.600 93.186,7.870 93.726,8.200 94.000 C 8.731 94.441,8.800 107.931,8.800 211.000 C 8.800 314.069,8.731 327.559,8.200 328.000 C 7.870 328.274,7.600 328.932,7.600 329.462 C 7.600 329.991,7.330 330.529,7.000 330.655 C 6.658 330.787,6.400 331.383,6.400 332.043 C 6.400 332.805,6.195 333.200,5.800 333.200 C 5.400 333.200,5.200 333.600,5.200 334.400 C 5.200 335.200,5.000 335.600,4.600 335.600 C 4.200 335.600,4.000 336.000,4.000 336.800 C 4.000 337.600,3.800 338.000,3.400 338.000 C 3.005 338.000,2.800 338.395,2.800 339.157 C 2.800 339.817,2.542 340.413,2.200 340.545 C 0.792 341.085,2.834 344.000,4.619 344.000 C 5.075 344.000,5.796 344.264,6.224 344.587 C 6.651 344.910,7.405 345.180,7.900 345.187 C 8.395 345.194,8.800 345.380,8.800 345.600 C 8.800 345.820,9.353 346.000,10.029 346.000 C 10.704 346.000,11.527 346.270,11.857 346.600 C 12.187 346.930,12.984 347.200,13.629 347.200 C 14.403 347.200,14.800 347.403,14.800 347.800 C 14.800 348.244,15.267 348.400,16.600 348.400 C 17.933 348.400,18.400 348.556,18.400 349.000 C 18.400 349.400,18.800 349.600,19.600 349.600 C 20.400 349.600,20.800 349.800,20.800 350.200 C 20.800 350.633,21.244 350.800,22.400 350.800 C 23.556 350.800,24.000 350.967,24.000 351.400 C 24.000 351.801,24.401 352.000,25.213 352.000 C 25.921 352.000,26.521 352.249,26.655 352.600 C 26.805 352.991,27.428 353.200,28.443 353.200 C 29.560 353.200,30.000 353.369,30.000 353.800 C 30.000 354.178,30.381 354.400,31.029 354.400 C 31.594 354.400,32.327 354.670,32.657 355.000 C 32.987 355.330,33.874 355.600,34.629 355.600 C 35.581 355.600,36.000 355.783,36.000 356.200 C 36.000 356.603,36.403 356.800,37.229 356.800 C 37.904 356.800,38.727 357.070,39.057 357.400 C 39.695 358.038,41.867 358.199,42.699 357.671 C 43.096 357.419,43.219 335.358,43.299 250.421 L 43.400 143.489 45.400 142.936 C 46.500 142.633,48.578 142.217,50.018 142.013 C 51.458 141.809,53.135 141.453,53.744 141.221 C 54.353 140.990,55.398 140.800,56.064 140.800 C 56.731 140.800,58.258 140.515,59.457 140.166 C 61.172 139.668,61.761 139.636,62.218 140.015 C 63.104 140.750,63.098 352.653,62.213 353.824 C 61.340 354.978,61.328 366.000,62.200 366.000 C 62.530 366.000,62.800 366.270,62.800 366.600 C 62.800 367.001,63.201 367.200,64.013 367.200 C 64.721 367.200,65.321 367.449,65.455 367.800 C 65.605 368.191,66.228 368.400,67.243 368.400 C 68.360 368.400,68.800 368.569,68.800 369.000 C 68.800 369.395,69.195 369.600,69.957 369.600 C 70.617 369.600,71.213 369.858,71.345 370.200 C 71.497 370.596,72.123 370.800,73.187 370.800 C 74.354 370.800,74.800 370.966,74.800 371.400 C 74.800 371.785,75.195 372.005,75.900 372.013 C 76.505 372.020,77.349 372.290,77.776 372.613 C 78.204 372.936,79.059 373.200,79.676 373.200 C 80.408 373.200,80.800 373.409,80.800 373.800 C 80.800 374.194,81.195 374.400,81.951 374.400 C 82.584 374.400,83.326 374.670,83.600 375.000 C 83.874 375.330,84.597 375.600,85.206 375.600 C 85.822 375.600,86.417 375.866,86.545 376.200 C 86.676 376.543,87.273 376.800,87.938 376.800 C 88.578 376.800,89.326 377.070,89.600 377.400 C 89.874 377.730,90.597 378.000,91.206 378.000 C 91.822 378.000,92.417 378.266,92.545 378.600 C 92.697 378.996,93.323 379.200,94.387 379.200 C 95.554 379.200,96.000 379.366,96.000 379.800 C 96.000 380.178,96.381 380.400,97.029 380.400 C 97.594 380.400,98.327 380.670,98.657 381.000 C 98.987 381.330,99.707 381.600,100.257 381.600 C 100.807 381.600,101.527 381.870,101.857 382.200 C 102.187 382.530,102.794 382.800,103.205 382.800 C 103.616 382.800,104.064 382.980,104.200 383.200 C 104.822 384.207,106.694 383.628,106.950 382.350 C 107.087 381.663,107.200 324.985,107.200 256.399 C 107.200 143.203,107.258 131.650,107.832 131.173 C 108.437 130.671,111.651 129.987,117.143 129.190 C 118.542 128.987,120.252 128.650,120.943 128.441 C 122.473 127.979,125.657 127.348,129.388 126.768 C 130.921 126.529,132.469 126.177,132.827 125.986 C 133.233 125.768,133.651 125.811,133.939 126.099 C 134.549 126.709,134.610 375.823,134.000 376.200 C 133.753 376.353,133.600 379.850,133.600 385.362 C 133.600 395.145,133.710 395.600,136.089 395.600 C 136.653 395.600,137.218 395.870,137.345 396.200 C 137.497 396.596,138.123 396.800,139.187 396.800 C 140.354 396.800,140.800 396.966,140.800 397.400 C 140.800 397.765,141.172 398.000,141.751 398.000 C 142.274 398.000,142.926 398.270,143.200 398.600 C 143.474 398.930,144.287 399.200,145.006 399.200 C 145.800 399.200,146.405 399.436,146.545 399.800 C 146.671 400.130,147.186 400.406,147.687 400.413 C 148.189 400.420,148.949 400.690,149.376 401.013 C 149.804 401.336,150.639 401.600,151.234 401.600 C 151.828 401.600,152.418 401.870,152.545 402.200 C 152.671 402.530,153.231 402.800,153.787 402.800 C 154.344 402.800,154.800 402.980,154.800 403.200 C 154.800 403.420,155.610 403.600,156.600 403.600 C 157.933 403.600,158.400 403.756,158.400 404.200 C 158.400 404.595,158.795 404.800,159.557 404.800 C 160.217 404.800,160.813 405.058,160.945 405.400 C 161.087 405.772,161.696 406.000,162.545 406.000 C 163.393 406.000,164.002 406.228,164.145 406.600 C 164.276 406.943,164.873 407.200,165.538 407.200 C 166.178 407.200,166.926 407.470,167.200 407.800 C 167.474 408.130,168.216 408.400,168.849 408.400 C 169.605 408.400,170.000 408.606,170.000 409.000 C 170.000 409.434,170.446 409.600,171.613 409.600 C 172.677 409.600,173.303 409.804,173.455 410.200 C 173.587 410.542,174.183 410.800,174.843 410.800 C 175.605 410.800,176.000 411.005,176.000 411.400 C 176.000 411.844,176.467 412.000,177.800 412.000 C 179.133 412.000,179.600 412.156,179.600 412.600 C 179.600 413.000,180.000 413.200,180.800 413.200 C 181.600 413.200,182.000 413.400,182.000 413.800 C 182.000 414.233,182.444 414.400,183.600 414.400 C 184.756 414.400,185.200 414.567,185.200 415.000 C 185.200 415.394,185.595 415.600,186.351 415.600 C 186.984 415.600,187.726 415.870,188.000 416.200 C 188.274 416.530,189.106 416.800,189.849 416.800 C 190.783 416.800,191.200 416.985,191.200 417.400 C 191.200 417.796,191.596 418.000,192.367 418.000 C 193.008 418.000,193.595 418.184,193.670 418.409 C 193.745 418.635,194.525 418.932,195.403 419.070 C 196.281 419.208,197.144 419.564,197.320 419.861 C 197.496 420.157,198.216 420.379,198.920 420.354 C 199.624 420.328,199.930 420.234,199.600 420.144 C 199.067 419.998,199.011 396.652,199.102 212.566 C 199.166 81.064,199.063 4.891,198.820 4.438 C 198.574 3.978,198.578 3.582,198.832 3.328 C 199.092 3.068,199.004 2.933,198.575 2.933 C 198.217 2.933,197.684 3.173,197.390 3.467 M288.500 39.475 C 288.005 39.575,287.600 39.823,287.600 40.028 C 287.600 40.233,286.874 40.400,285.987 40.400 C 284.923 40.400,284.297 40.604,284.145 41.000 C 283.983 41.421,283.327 41.600,281.945 41.600 C 280.563 41.600,279.906 41.779,279.745 42.200 C 279.591 42.602,278.959 42.800,277.834 42.800 C 276.909 42.800,275.804 43.064,275.376 43.387 C 274.949 43.710,273.835 43.980,272.900 43.987 C 271.661 43.997,271.200 44.163,271.200 44.600 C 271.200 45.051,270.717 45.200,269.249 45.200 C 268.003 45.200,267.118 45.417,266.800 45.800 C 266.526 46.130,266.054 46.400,265.751 46.400 C 265.284 46.400,265.200 65.560,265.200 171.843 C 265.200 291.148,265.234 297.272,265.900 297.016 C 267.259 296.492,273.666 295.215,276.800 294.843 C 278.010 294.699,279.250 294.425,279.555 294.234 C 279.859 294.042,281.209 293.752,282.555 293.588 C 285.572 293.221,289.596 292.413,290.400 292.012 C 291.489 291.469,291.290 39.419,290.200 39.348 C 289.760 39.319,288.995 39.376,288.500 39.475 M337.022 69.300 C 336.874 74.855,336.809 125.209,336.877 181.199 L 337.000 282.997 338.600 282.873 C 339.480 282.805,340.740 282.592,341.400 282.400 C 342.495 282.082,343.929 281.805,349.800 280.781 C 350.900 280.589,352.565 280.221,353.500 279.964 L 355.200 279.496 355.200 172.348 C 355.200 71.769,355.242 65.200,355.880 65.200 C 356.409 65.200,356.453 65.093,356.080 64.720 C 355.707 64.347,355.493 64.347,355.120 64.720 C 354.856 64.984,353.609 65.200,352.349 65.200 C 350.845 65.200,349.851 65.406,349.457 65.800 C 349.067 66.191,348.075 66.400,346.616 66.400 C 344.993 66.400,344.311 66.565,344.145 67.000 C 343.971 67.452,343.242 67.600,341.187 67.600 C 338.925 67.600,338.427 67.720,338.276 68.300 C 338.175 68.685,338.072 66.795,338.046 64.100 C 337.965 55.478,337.300 58.853,337.022 69.300 M314.061 328.303 C 313.764 328.906,313.375 329.940,313.196 330.600 C 312.849 331.877,312.094 334.081,311.551 335.400 C 310.883 337.023,309.928 339.829,309.714 340.800 C 309.592 341.350,309.358 341.980,309.193 342.200 C 309.027 342.420,308.765 343.197,308.608 343.927 C 308.452 344.657,308.073 345.737,307.765 346.327 C 307.457 346.917,307.204 347.704,307.202 348.076 C 307.201 348.448,307.036 348.854,306.835 348.978 C 306.634 349.103,306.348 349.922,306.200 350.800 C 306.052 351.678,305.766 352.497,305.565 352.622 C 305.364 352.746,305.200 353.124,305.200 353.463 C 305.200 353.802,304.960 354.646,304.666 355.340 C 303.970 356.981,303.236 359.053,302.731 360.800 C 302.508 361.570,302.162 362.371,301.963 362.580 C 301.763 362.789,301.600 363.644,301.600 364.480 L 301.600 366.000 318.800 366.000 C 337.992 366.000,336.888 366.191,335.000 363.200 C 334.450 362.329,334.000 361.500,334.000 361.359 C 334.000 361.217,333.190 359.767,332.200 358.136 C 331.210 356.506,330.400 354.908,330.400 354.586 C 330.400 354.264,330.238 354.000,330.039 354.000 C 329.841 354.000,329.480 353.505,329.238 352.900 C 328.996 352.295,328.440 351.260,328.003 350.600 C 327.566 349.940,327.117 349.175,327.004 348.900 C 326.892 348.625,326.708 348.175,326.596 347.900 C 326.483 347.625,326.045 346.860,325.622 346.200 C 325.200 345.540,324.236 343.830,323.480 342.400 C 321.136 337.963,320.616 337.054,320.100 336.490 C 319.825 336.189,319.600 335.779,319.600 335.578 C 319.600 335.378,318.910 334.086,318.066 332.707 C 317.222 331.328,316.212 329.525,315.820 328.700 C 314.972 326.912,314.767 326.866,314.061 328.303 M296.287 381.832 C 295.750 382.549,295.718 382.730,296.156 382.561 C 296.476 382.439,296.846 382.056,296.978 381.712 C 297.352 380.737,297.069 380.786,296.287 381.832 " stroke="none" fill="#4c2c84" fill-rule="evenodd"></path><path id="path1" d="M200.400 211.314 C 200.400 409.791,200.463 422.387,201.436 419.850 C 201.638 419.324,203.519 418.624,204.249 418.804 C 204.393 418.839,204.634 418.668,204.785 418.424 C 204.937 418.179,205.631 417.939,206.329 417.889 C 207.030 417.840,207.599 417.576,207.599 417.300 C 207.600 417.025,208.053 416.800,208.608 416.800 C 209.162 416.800,210.627 416.260,211.864 415.600 C 213.101 414.940,214.413 414.400,214.780 414.400 C 215.147 414.400,215.796 414.136,216.224 413.813 C 216.651 413.490,217.476 413.220,218.057 413.213 C 218.639 413.206,219.218 412.930,219.345 412.600 C 219.471 412.270,220.018 412.000,220.559 412.000 C 221.100 412.000,221.813 411.730,222.143 411.400 C 222.473 411.070,223.184 410.800,223.722 410.800 C 224.261 410.800,224.926 410.530,225.200 410.200 C 225.474 409.870,226.203 409.600,226.820 409.600 C 227.438 409.600,228.213 409.330,228.543 409.000 C 228.873 408.670,229.494 408.400,229.922 408.400 C 230.351 408.400,230.926 408.130,231.200 407.800 C 231.474 407.470,232.197 407.200,232.806 407.200 C 233.422 407.200,234.017 406.934,234.145 406.600 C 234.297 406.203,234.924 406.000,236.000 406.000 C 237.076 406.000,237.703 405.797,237.855 405.400 C 237.982 405.070,238.522 404.800,239.055 404.800 C 239.589 404.800,240.129 404.530,240.255 404.200 C 240.397 403.831,241.004 403.600,241.830 403.600 C 242.813 403.600,243.118 403.451,242.962 403.044 C 242.802 402.627,243.079 402.517,244.074 402.601 C 244.837 402.666,245.692 402.456,246.087 402.107 C 246.464 401.773,247.219 401.500,247.763 401.500 C 248.307 401.500,248.844 401.262,248.955 400.972 C 249.067 400.682,249.799 400.324,250.583 400.177 C 251.367 400.030,252.107 399.750,252.228 399.555 C 252.349 399.360,252.892 399.200,253.436 399.200 C 253.980 399.200,254.529 398.930,254.655 398.600 C 254.798 398.228,255.407 398.000,256.255 398.000 C 257.104 398.000,257.713 397.772,257.855 397.400 C 257.995 397.035,258.601 396.800,259.400 396.800 C 260.199 396.800,260.805 396.565,260.945 396.200 C 261.080 395.847,261.680 395.600,262.400 395.600 C 263.120 395.600,263.720 395.353,263.855 395.000 C 264.007 394.605,264.632 394.400,265.686 394.400 C 266.943 394.400,267.236 394.272,267.055 393.800 C 266.884 393.353,267.116 393.200,267.964 393.200 C 268.590 393.200,269.326 392.930,269.600 392.600 C 269.874 392.270,270.616 392.000,271.249 392.000 C 271.882 392.000,272.400 391.809,272.400 391.576 C 272.400 391.343,272.580 391.264,272.800 391.400 C 273.020 391.536,273.200 391.457,273.200 391.224 C 273.200 390.991,273.740 390.800,274.400 390.800 C 275.060 390.800,275.600 390.623,275.600 390.408 C 275.600 390.192,276.095 389.905,276.700 389.770 C 278.861 389.289,279.209 389.137,278.982 388.771 C 278.856 388.567,279.371 388.400,280.127 388.400 C 280.883 388.400,281.726 388.130,282.000 387.800 C 282.274 387.470,282.913 387.200,283.420 387.200 C 283.928 387.200,284.613 386.930,284.943 386.600 C 285.273 386.270,285.993 386.000,286.543 386.000 C 287.093 386.000,287.782 385.760,288.075 385.467 C 288.368 385.175,289.101 384.811,289.704 384.660 C 290.307 384.509,290.800 384.208,290.800 383.992 C 290.800 383.777,291.394 383.600,292.120 383.600 C 292.846 383.600,293.632 383.408,293.868 383.172 C 294.103 382.937,294.564 382.705,294.891 382.657 C 295.792 382.525,296.630 381.531,296.964 380.200 C 297.129 379.544,297.441 378.898,297.658 378.764 C 298.077 378.505,298.319 377.591,298.369 376.076 C 298.386 375.568,298.541 375.240,298.714 375.347 C 298.887 375.454,299.061 375.239,299.101 374.871 C 299.298 373.044,299.493 372.347,299.926 371.914 C 300.187 371.653,300.400 370.775,300.400 369.963 C 300.400 369.019,300.617 368.402,301.000 368.255 C 301.672 367.998,301.820 366.183,301.200 365.800 C 300.604 365.432,300.721 363.161,301.402 361.854 C 301.731 361.224,302.000 360.404,302.000 360.031 C 302.000 359.658,302.264 359.004,302.587 358.576 C 302.910 358.149,303.180 357.345,303.187 356.789 C 303.194 356.233,303.444 355.423,303.743 354.989 C 304.042 354.555,304.410 353.525,304.561 352.700 C 304.713 351.875,305.008 351.200,305.218 351.200 C 305.428 351.200,305.600 350.694,305.600 350.076 C 305.600 349.459,305.864 348.604,306.187 348.176 C 306.510 347.749,306.780 346.941,306.787 346.380 C 306.794 345.819,306.994 345.166,307.231 344.929 C 307.468 344.692,307.812 343.891,307.996 343.149 C 308.419 341.441,309.187 339.234,309.718 338.203 C 309.943 337.765,310.263 336.865,310.429 336.203 C 310.774 334.823,311.493 332.764,312.266 330.940 C 312.560 330.246,312.800 329.492,312.800 329.262 C 312.800 328.683,314.416 326.000,314.764 326.000 C 315.152 326.000,316.445 327.856,317.408 329.794 C 317.844 330.671,318.425 331.628,318.700 331.922 C 318.975 332.217,319.200 332.692,319.200 332.980 C 319.200 333.267,319.470 333.726,319.800 334.000 C 320.130 334.274,320.400 334.836,320.400 335.249 C 320.400 335.662,320.568 336.000,320.773 336.000 C 320.978 336.000,321.271 336.395,321.424 336.877 C 321.577 337.359,322.400 338.892,323.251 340.284 C 324.103 341.675,324.800 342.978,324.800 343.178 C 324.800 343.379,325.025 343.784,325.300 344.079 C 325.575 344.373,326.250 345.511,326.800 346.607 C 327.350 347.703,327.912 348.690,328.049 348.800 C 328.186 348.910,328.687 349.810,329.163 350.800 C 329.639 351.790,330.371 353.140,330.791 353.800 C 331.210 354.460,332.025 355.900,332.601 357.000 C 335.369 362.284,335.932 363.292,336.350 363.710 C 336.597 363.957,336.800 364.574,336.800 365.080 C 336.800 366.181,338.766 366.405,339.600 365.400 C 339.874 365.070,340.595 364.800,341.203 364.800 C 341.811 364.800,342.811 364.539,343.426 364.220 C 344.040 363.902,344.703 363.740,344.898 363.861 C 345.093 363.981,345.467 363.788,345.727 363.432 C 345.988 363.075,346.784 362.742,347.495 362.692 C 348.207 362.641,348.876 362.375,348.982 362.100 C 349.088 361.825,349.595 361.600,350.107 361.600 C 350.620 361.600,351.256 361.384,351.520 361.120 C 351.784 360.856,352.003 360.811,352.006 361.020 C 352.009 361.229,352.144 361.193,352.306 360.939 C 352.468 360.686,353.227 360.380,353.993 360.260 C 354.760 360.139,355.450 359.851,355.527 359.620 C 355.604 359.389,356.107 359.200,356.646 359.200 C 357.184 359.200,357.729 358.930,357.855 358.600 C 357.996 358.233,358.602 358.000,359.414 358.000 C 360.145 358.000,360.982 357.761,361.275 357.468 C 361.567 357.175,362.524 356.820,363.400 356.677 C 364.277 356.535,365.055 356.235,365.130 356.009 C 365.205 355.784,365.792 355.600,366.433 355.600 C 367.204 355.600,367.600 355.396,367.600 355.000 C 367.600 354.583,368.020 354.400,368.980 354.400 C 369.768 354.400,370.499 354.152,370.684 353.822 C 370.868 353.492,371.725 353.201,372.678 353.145 C 373.597 353.091,374.315 352.856,374.274 352.623 C 374.233 352.390,374.865 352.145,375.679 352.077 C 376.774 351.986,377.100 351.805,376.936 351.377 C 376.765 350.932,377.092 350.800,378.370 350.800 C 379.472 350.800,380.102 350.600,380.255 350.200 C 380.385 349.863,380.980 349.600,381.614 349.600 C 382.235 349.600,383.013 349.330,383.343 349.000 C 383.673 348.670,384.384 348.400,384.922 348.400 C 385.461 348.400,386.126 348.130,386.400 347.800 C 386.674 347.470,387.394 347.200,388.000 347.200 C 388.606 347.200,389.326 346.930,389.600 346.600 C 389.886 346.255,390.758 346.000,391.649 346.000 C 392.656 346.000,393.165 345.829,393.100 345.513 C 393.035 345.195,393.433 345.064,394.247 345.137 C 395.239 345.226,395.540 345.072,395.720 344.384 C 395.844 343.909,396.118 343.626,396.328 343.756 C 396.538 343.886,396.789 343.454,396.886 342.796 C 397.006 341.981,396.892 341.600,396.531 341.600 C 396.205 341.600,396.000 341.126,396.000 340.376 C 396.000 339.656,395.834 339.255,395.597 339.402 C 395.126 339.693,394.416 338.035,394.695 337.300 C 394.800 337.025,394.596 336.800,394.243 336.800 C 393.889 336.800,393.600 336.558,393.600 336.263 C 393.600 335.472,390.759 330.000,390.348 330.000 C 389.662 330.000,389.916 94.518,390.603 94.254 C 390.931 94.128,391.200 93.739,391.200 93.389 C 391.200 93.039,391.371 92.858,391.580 92.988 C 391.789 93.117,392.086 92.547,392.241 91.721 C 392.396 90.896,392.765 89.978,393.061 89.681 C 393.358 89.385,393.600 88.815,393.600 88.414 C 393.600 88.013,393.870 87.582,394.200 87.455 C 394.530 87.329,394.800 87.027,394.800 86.784 C 394.800 86.541,395.070 86.073,395.400 85.743 C 395.730 85.413,396.000 84.693,396.000 84.143 C 396.000 83.593,396.278 82.865,396.618 82.525 C 397.255 81.887,396.514 79.905,395.823 80.400 C 395.669 80.510,395.367 80.285,395.152 79.900 C 394.937 79.515,394.340 79.200,393.826 79.200 C 393.312 79.200,392.376 78.931,391.746 78.602 C 391.116 78.274,390.296 78.004,389.924 78.002 C 389.552 78.001,389.136 77.820,389.000 77.600 C 388.864 77.380,388.243 77.200,387.619 77.200 C 386.996 77.200,386.387 76.943,386.266 76.629 C 386.146 76.315,385.542 76.000,384.924 75.929 C 384.306 75.858,383.830 75.620,383.866 75.400 C 383.903 75.180,383.186 74.948,382.273 74.883 C 381.338 74.818,380.471 74.512,380.287 74.183 C 380.103 73.854,379.380 73.600,378.629 73.600 C 377.897 73.600,377.074 73.330,376.800 73.000 C 376.526 72.670,375.874 72.400,375.351 72.400 C 374.828 72.400,374.400 72.228,374.400 72.018 C 374.400 71.808,373.776 71.519,373.014 71.376 C 372.252 71.233,371.420 70.865,371.165 70.558 C 370.910 70.251,370.203 70.000,369.594 70.000 C 368.978 70.000,368.383 69.734,368.255 69.400 C 368.124 69.057,367.527 68.800,366.862 68.800 C 366.222 68.800,365.474 68.530,365.200 68.200 C 364.926 67.870,364.206 67.600,363.600 67.600 C 362.994 67.600,362.274 67.330,362.000 67.000 C 361.726 66.670,361.096 66.400,360.600 66.400 C 360.104 66.400,359.474 66.130,359.200 65.800 C 358.926 65.470,358.274 65.200,357.752 65.200 L 356.801 65.200 356.701 172.284 L 356.600 279.368 355.241 280.284 C 354.357 280.880,353.291 281.200,352.191 281.200 C 351.261 281.200,349.735 281.470,348.800 281.800 C 347.865 282.130,346.424 282.400,345.599 282.400 C 344.773 282.400,343.487 282.655,342.741 282.967 C 341.237 283.595,337.214 283.903,336.474 283.446 C 335.694 282.964,335.802 70.990,336.583 69.492 C 337.633 67.479,337.531 57.903,336.454 57.405 C 335.984 57.188,335.600 56.783,335.600 56.505 C 335.600 56.178,334.999 55.998,333.900 55.994 C 332.818 55.990,332.394 55.865,332.734 55.650 C 333.422 55.213,332.454 54.800,330.744 54.800 C 330.089 54.800,329.652 54.639,329.774 54.442 C 330.045 54.004,329.076 53.600,327.755 53.600 C 327.216 53.600,326.671 53.330,326.545 53.000 C 326.405 52.635,325.799 52.400,325.000 52.400 C 324.201 52.400,323.595 52.165,323.455 51.800 C 323.329 51.470,322.782 51.200,322.241 51.200 C 321.700 51.200,320.987 50.930,320.657 50.600 C 320.327 50.270,319.513 50.000,318.848 50.000 C 318.184 50.000,317.496 49.746,317.320 49.435 C 317.144 49.124,316.460 48.809,315.800 48.735 C 315.105 48.657,314.642 48.390,314.700 48.100 C 314.761 47.797,314.366 47.599,313.700 47.598 C 313.095 47.596,312.084 47.326,311.454 46.998 C 310.824 46.669,309.969 46.400,309.554 46.400 C 309.139 46.400,308.800 46.157,308.800 45.861 C 308.800 45.530,308.312 45.308,307.539 45.286 C 306.846 45.266,306.133 45.015,305.956 44.729 C 305.779 44.442,305.401 44.188,305.117 44.164 C 304.833 44.141,304.195 44.094,303.700 44.061 C 303.205 44.027,302.800 43.750,302.800 43.444 C 302.800 43.139,302.575 42.897,302.300 42.907 C 300.735 42.966,299.581 42.755,299.772 42.445 C 300.013 42.056,298.712 41.614,297.300 41.605 C 296.805 41.602,296.400 41.369,296.400 41.087 C 296.400 40.805,295.917 40.535,295.327 40.486 C 294.738 40.437,293.854 40.134,293.364 39.814 C 292.578 39.298,292.446 39.302,292.237 39.848 C 292.107 40.187,292.000 97.140,292.000 166.409 C 292.000 243.928,291.856 292.441,291.627 292.583 C 291.134 292.888,288.035 293.555,284.800 294.053 C 283.370 294.273,281.840 294.609,281.400 294.800 C 280.597 295.148,277.317 295.723,272.324 296.389 C 270.852 296.585,269.270 296.948,268.809 297.195 C 268.347 297.442,267.211 297.589,266.285 297.522 L 264.600 297.400 264.499 172.421 C 264.432 89.368,264.533 47.307,264.799 47.041 C 265.368 46.472,265.341 28.800,264.771 28.800 C 264.536 28.800,264.073 28.530,263.743 28.200 C 263.413 27.870,262.526 27.600,261.771 27.600 C 260.819 27.600,260.400 27.417,260.400 27.000 C 260.400 26.625,260.021 26.400,259.387 26.400 C 258.831 26.400,258.276 26.142,258.155 25.827 C 258.034 25.512,257.635 25.275,257.268 25.300 C 256.205 25.373,254.349 24.806,254.556 24.471 C 254.660 24.303,254.192 24.124,253.517 24.072 C 252.122 23.966,251.505 23.678,251.766 23.255 C 251.864 23.096,251.396 22.924,250.726 22.873 C 250.055 22.822,249.128 22.515,248.664 22.190 C 248.201 21.866,247.434 21.600,246.960 21.600 C 246.486 21.600,245.876 21.332,245.604 21.004 C 245.332 20.677,244.982 20.488,244.826 20.584 C 244.670 20.680,244.040 20.498,243.426 20.180 C 242.811 19.861,241.956 19.600,241.526 19.600 C 241.095 19.600,240.473 19.330,240.143 19.000 C 239.813 18.670,238.906 18.400,238.129 18.400 C 237.036 18.400,236.767 18.264,236.945 17.800 C 237.120 17.342,236.865 17.200,235.864 17.200 C 235.143 17.200,234.204 16.936,233.776 16.613 C 233.349 16.290,232.614 16.020,232.143 16.013 C 231.671 16.006,231.182 15.730,231.055 15.400 C 230.924 15.057,230.327 14.800,229.662 14.800 C 229.022 14.800,228.274 14.530,228.000 14.200 C 227.726 13.870,226.984 13.600,226.351 13.600 C 225.682 13.600,225.200 13.385,225.200 13.087 C 225.200 12.805,224.715 12.534,224.122 12.485 C 223.530 12.436,222.922 12.197,222.771 11.953 C 222.582 11.647,222.427 11.678,222.272 12.055 C 222.095 12.482,221.951 12.449,221.603 11.900 C 221.360 11.515,220.831 11.200,220.429 11.200 C 220.027 11.200,219.506 10.969,219.272 10.687 C 219.038 10.405,218.259 10.129,217.541 10.074 C 216.823 10.019,215.943 9.710,215.586 9.387 C 215.229 9.064,214.568 8.800,214.117 8.800 C 213.667 8.800,213.074 8.530,212.800 8.200 C 212.526 7.870,211.806 7.600,211.200 7.600 C 210.594 7.600,209.874 7.330,209.600 7.000 C 209.326 6.670,208.674 6.400,208.151 6.400 C 207.628 6.400,207.200 6.168,207.200 5.885 C 207.200 5.602,206.678 5.330,206.039 5.282 C 205.401 5.233,204.366 4.926,203.739 4.599 C 203.113 4.272,202.434 4.004,202.231 4.002 C 202.029 4.001,201.534 3.702,201.131 3.338 C 200.423 2.697,200.400 9.214,200.400 211.314 M63.200 57.581 C 63.200 58.149,64.052 60.004,65.090 61.698 C 65.595 62.523,66.567 64.233,67.250 65.498 C 67.934 66.764,68.992 68.700,69.602 69.800 C 70.212 70.900,71.109 72.566,71.597 73.502 C 72.084 74.438,72.644 75.304,72.841 75.426 C 73.039 75.547,73.200 75.997,73.200 76.424 C 73.200 76.851,73.342 77.200,73.516 77.200 C 73.690 77.200,74.336 78.145,74.951 79.300 C 75.566 80.455,76.675 82.480,77.416 83.800 C 78.157 85.120,79.229 87.100,79.798 88.200 C 80.368 89.300,81.002 90.470,81.209 90.800 C 81.416 91.130,82.218 92.480,82.992 93.800 C 83.903 95.355,84.398 95.910,84.399 95.376 C 84.400 94.924,84.664 94.204,84.987 93.776 C 85.310 93.349,85.580 92.629,85.587 92.176 C 85.594 91.724,85.864 91.004,86.187 90.576 C 86.510 90.149,86.780 89.339,86.787 88.776 C 86.794 88.214,87.064 87.404,87.387 86.976 C 87.710 86.549,87.980 85.727,87.987 85.149 C 87.994 84.571,88.270 83.874,88.600 83.600 C 88.930 83.326,89.206 82.629,89.213 82.051 C 89.220 81.473,89.490 80.651,89.813 80.224 C 90.136 79.796,90.406 78.986,90.413 78.424 C 90.420 77.861,90.690 77.051,91.013 76.624 C 91.336 76.196,91.600 75.519,91.600 75.118 C 91.600 74.717,91.779 74.077,91.997 73.695 C 92.548 72.730,93.634 69.625,93.884 68.295 C 93.999 67.687,94.251 67.092,94.446 66.971 C 94.641 66.851,94.801 66.448,94.802 66.076 C 94.804 65.704,95.074 64.884,95.402 64.254 C 95.731 63.624,96.001 62.814,96.002 62.454 C 96.004 62.094,96.274 61.284,96.602 60.654 C 96.931 60.024,97.200 58.989,97.200 58.354 L 97.200 57.200 80.200 57.200 C 69.693 57.200,63.200 57.346,63.200 57.581 M128.400 127.790 C 127.850 128.110,126.567 128.378,125.549 128.386 C 124.531 128.394,123.051 128.670,122.262 129.000 C 121.472 129.330,119.965 129.606,118.913 129.614 C 117.861 129.622,116.550 129.886,116.000 130.200 C 115.450 130.514,114.046 130.778,112.880 130.786 C 111.714 130.794,110.229 131.075,109.580 131.410 L 108.400 132.021 108.400 257.810 L 108.400 383.600 109.226 383.600 C 109.681 383.600,110.398 383.415,110.820 383.189 C 111.243 382.963,112.356 382.673,113.294 382.545 C 114.232 382.417,115.201 382.150,115.447 381.951 C 115.693 381.752,116.637 381.547,117.545 381.495 C 118.547 381.437,119.197 381.203,119.198 380.900 C 119.199 380.592,119.815 380.381,120.800 380.350 C 123.019 380.281,123.097 380.263,123.660 379.700 C 123.935 379.425,124.619 379.199,125.180 379.198 C 125.741 379.196,126.650 378.964,127.200 378.682 C 127.750 378.400,129.010 378.120,130.000 378.059 C 130.990 377.998,132.000 377.690,132.244 377.374 C 132.488 377.058,132.879 376.800,133.112 376.800 C 133.985 376.800,134.034 369.048,133.918 249.600 L 133.800 127.400 131.600 127.305 C 130.240 127.246,129.018 127.431,128.400 127.790 M60.800 140.768 C 60.470 140.957,59.037 141.243,57.616 141.405 C 56.195 141.566,54.755 141.847,54.416 142.030 C 53.741 142.393,49.408 143.142,46.100 143.467 L 44.000 143.674 44.000 250.858 L 44.000 358.042 46.438 357.954 C 47.825 357.904,49.107 357.636,49.410 357.333 C 49.728 357.015,50.881 356.795,52.271 356.787 C 53.682 356.780,54.906 356.543,55.376 356.187 C 55.804 355.864,56.916 355.600,57.848 355.600 C 58.895 355.600,59.797 355.346,60.208 354.935 C 60.717 354.425,60.944 354.387,61.181 354.769 C 61.411 355.141,61.553 355.098,61.744 354.601 C 62.108 353.654,62.063 140.397,61.700 140.412 C 61.535 140.419,61.130 140.579,60.800 140.768 " stroke="none" fill="#b4b4b4" fill-rule="evenodd"></path><path id="path2" d="M199.852 4.100 C 199.470 5.527,199.617 418.508,200.000 419.400 C 200.192 419.848,200.356 328.348,200.372 211.700 C 200.387 97.025,200.331 3.200,200.247 3.200 C 200.162 3.200,199.985 3.605,199.852 4.100 M291.600 165.776 C 291.600 264.258,291.493 292.019,291.115 292.253 C 290.848 292.418,289.903 292.684,289.015 292.845 C 288.127 293.006,286.050 293.408,284.400 293.740 C 282.750 294.071,280.230 294.554,278.800 294.813 C 274.910 295.517,271.347 296.445,273.400 296.219 C 276.447 295.885,280.603 295.146,281.400 294.796 C 281.840 294.603,283.190 294.330,284.400 294.191 C 285.610 294.051,287.140 293.781,287.800 293.591 C 288.460 293.401,289.630 293.093,290.400 292.908 L 291.800 292.570 292.000 166.085 C 292.110 96.518,292.065 39.600,291.900 39.600 C 291.735 39.600,291.600 96.379,291.600 165.776 M264.585 47.300 C 264.481 47.575,264.441 103.960,264.498 172.600 L 264.600 297.400 266.077 297.523 C 266.889 297.590,268.329 297.360,269.277 297.011 C 270.916 296.407,270.931 296.386,269.600 296.591 C 268.830 296.709,267.434 296.918,266.499 297.055 L 264.797 297.304 264.899 172.052 C 264.954 103.163,264.949 46.800,264.887 46.800 C 264.826 46.800,264.689 47.025,264.585 47.300 M62.400 57.582 C 62.400 57.793,62.906 58.828,63.524 59.882 C 64.143 60.937,64.775 62.070,64.930 62.400 C 65.084 62.730,65.756 63.900,66.424 65.000 C 67.091 66.100,67.896 67.573,68.212 68.273 C 68.529 68.973,68.971 69.658,69.194 69.796 C 69.838 70.194,69.675 69.703,68.600 68.000 C 68.050 67.129,67.600 66.300,67.600 66.159 C 67.600 66.017,66.813 64.605,65.851 63.021 C 64.890 61.437,63.863 59.479,63.571 58.670 C 63.081 57.315,62.400 56.682,62.400 57.582 M97.254 58.454 C 97.225 59.034,96.931 60.024,96.602 60.654 C 96.274 61.284,96.004 62.094,96.002 62.454 C 96.001 62.814,95.731 63.624,95.402 64.254 C 95.074 64.884,94.804 65.679,94.802 66.020 C 94.801 66.361,94.603 66.837,94.362 67.078 C 94.122 67.318,93.990 67.849,94.069 68.258 C 94.159 68.726,94.461 68.261,94.885 67.000 C 95.255 65.900,96.028 63.682,96.603 62.071 C 97.178 60.460,97.572 58.750,97.478 58.271 C 97.334 57.528,97.301 57.555,97.254 58.454 M356.000 172.367 L 356.000 279.534 354.300 280.153 C 353.365 280.493,352.150 280.844,351.600 280.931 C 350.987 281.029,351.235 281.112,352.241 281.146 C 353.357 281.183,354.316 280.907,355.241 280.284 L 356.600 279.368 356.701 172.284 C 356.768 100.963,356.668 65.200,356.401 65.200 C 356.134 65.200,356.000 101.058,356.000 172.367 M93.268 70.287 C 93.026 70.899,92.711 71.897,92.569 72.504 C 92.428 73.111,92.151 73.706,91.956 73.827 C 91.760 73.948,91.600 74.447,91.600 74.935 C 91.600 75.423,91.318 76.225,90.973 76.717 C 90.628 77.210,90.403 78.015,90.473 78.506 C 90.551 79.056,91.110 77.862,91.927 75.400 C 92.657 73.200,93.452 70.995,93.694 70.501 C 93.936 70.006,94.038 69.505,93.921 69.388 C 93.804 69.270,93.510 69.675,93.268 70.287 M69.650 70.600 C 70.260 72.228,72.993 76.821,73.121 76.436 C 73.210 76.171,73.033 75.649,72.728 75.277 C 72.424 74.905,71.750 73.790,71.230 72.800 C 70.349 71.121,69.295 69.654,69.650 70.600 M336.099 176.651 C 336.006 276.229,336.044 283.137,336.677 283.651 C 337.261 284.125,337.302 284.118,336.977 283.600 C 336.745 283.231,336.523 242.098,336.399 176.600 L 336.197 70.200 336.099 176.651 M74.471 79.500 C 75.155 80.765,75.847 81.980,76.008 82.200 C 76.169 82.420,76.985 83.860,77.821 85.400 C 78.657 86.940,79.655 88.740,80.040 89.400 C 80.424 90.060,81.211 91.500,81.788 92.600 C 82.365 93.700,83.167 95.035,83.570 95.566 L 84.304 96.533 85.152 94.616 C 85.618 93.561,86.000 92.372,86.000 91.973 C 86.000 91.574,86.180 91.136,86.400 91.000 C 86.620 90.864,86.794 90.538,86.787 90.276 C 86.766 89.461,85.601 91.305,85.587 92.176 C 85.580 92.629,85.310 93.349,84.987 93.776 C 84.664 94.204,84.400 94.924,84.399 95.376 C 84.398 95.910,83.903 95.355,82.992 93.800 C 82.218 92.480,81.416 91.130,81.209 90.800 C 81.002 90.470,80.368 89.300,79.798 88.200 C 79.229 87.100,78.157 85.120,77.416 83.800 C 76.675 82.480,75.566 80.455,74.951 79.300 C 74.336 78.145,73.697 77.200,73.530 77.200 C 73.363 77.200,73.787 78.235,74.471 79.500 M89.685 80.413 C 89.418 80.840,89.208 81.597,89.218 82.095 C 89.230 82.737,89.399 82.539,89.800 81.415 C 90.438 79.623,90.398 79.271,89.685 80.413 M88.473 83.687 C 88.213 83.947,87.994 84.619,87.987 85.180 C 87.980 85.741,87.710 86.549,87.387 86.976 C 87.064 87.404,86.815 88.214,86.834 88.776 L 86.869 89.800 87.202 88.800 C 87.385 88.250,87.906 86.822,88.360 85.626 C 89.228 83.339,89.253 82.907,88.473 83.687 M131.400 126.780 L 129.800 127.041 131.900 127.220 C 133.112 127.324,133.948 127.241,133.875 127.025 C 133.706 126.517,133.276 126.475,131.400 126.780 M127.471 127.462 C 127.327 127.606,126.532 127.856,125.704 128.016 L 124.200 128.308 125.800 128.340 C 126.680 128.357,127.850 128.114,128.400 127.800 C 129.324 127.272,129.337 127.227,128.567 127.214 C 128.108 127.206,127.615 127.318,127.471 127.462 M121.442 128.691 C 121.282 128.851,120.217 129.096,119.075 129.235 L 117.000 129.487 119.000 129.526 C 120.965 129.563,124.419 128.505,122.567 128.432 C 122.108 128.415,121.602 128.531,121.442 128.691 M115.526 129.807 C 115.413 129.921,114.258 130.169,112.960 130.358 L 110.600 130.702 112.800 130.737 C 114.037 130.757,115.438 130.521,116.000 130.200 C 116.658 129.824,116.784 129.624,116.367 129.614 C 116.018 129.606,115.640 129.693,115.526 129.807 M108.489 131.423 L 107.600 132.045 107.600 257.823 C 107.600 341.408,107.734 383.600,108.000 383.600 C 108.266 383.600,108.400 341.404,108.400 257.813 L 108.400 132.026 109.500 131.429 C 110.121 131.092,110.334 130.825,109.989 130.816 C 109.653 130.807,108.978 131.080,108.489 131.423 M60.676 140.258 C 60.519 140.415,59.087 140.768,57.495 141.044 C 55.903 141.319,53.340 141.763,51.800 142.031 C 48.496 142.605,44.474 143.722,46.800 143.419 C 50.353 142.956,53.871 142.316,54.600 142.000 C 55.040 141.809,56.570 141.487,58.000 141.283 C 59.430 141.080,60.915 140.779,61.299 140.614 C 61.964 140.330,62.004 145.606,62.100 246.857 L 62.202 353.400 62.201 246.805 C 62.200 134.513,62.260 138.674,60.676 140.258 M43.465 143.868 C 43.016 144.318,43.153 357.524,43.603 357.802 C 43.865 357.964,44.000 321.677,44.000 250.824 C 44.000 191.851,43.940 143.600,43.867 143.600 C 43.793 143.600,43.613 143.721,43.465 143.868 M348.293 281.441 C 348.161 281.573,347.096 281.820,345.926 281.991 L 343.800 282.300 345.600 282.320 C 347.419 282.339,351.043 281.292,349.367 281.230 C 348.908 281.214,348.425 281.308,348.293 281.441 M341.893 282.641 C 341.761 282.773,340.696 283.020,339.526 283.191 L 337.400 283.500 339.400 283.532 C 341.371 283.563,344.807 282.504,342.967 282.432 C 342.508 282.415,342.025 282.508,341.893 282.641 M313.682 327.351 C 313.244 328.093,312.762 329.261,312.612 329.946 C 312.461 330.631,312.172 331.294,311.969 331.419 C 311.766 331.545,311.601 332.042,311.602 332.524 C 311.605 333.306,311.669 333.277,312.202 332.254 C 312.531 331.624,312.802 330.904,312.805 330.654 C 312.808 330.404,313.229 329.300,313.740 328.200 L 314.670 326.200 316.035 328.410 C 318.233 331.968,318.319 332.116,319.254 333.979 C 319.745 334.957,320.223 335.532,320.315 335.256 C 320.407 334.980,320.194 334.435,319.841 334.045 C 319.488 333.656,319.200 333.139,319.200 332.897 C 319.200 332.655,318.975 332.217,318.700 331.922 C 318.425 331.628,317.844 330.671,317.408 329.794 C 315.445 325.843,314.815 325.430,313.682 327.351 M310.885 334.573 C 310.618 335.159,310.407 335.944,310.416 336.319 C 310.424 336.693,310.699 336.384,311.026 335.630 C 311.727 334.014,311.594 333.017,310.885 334.573 M321.353 337.700 C 323.259 341.159,324.979 344.244,325.870 345.800 C 326.374 346.680,326.959 347.760,327.169 348.200 C 327.732 349.375,329.573 352.239,329.588 351.961 C 329.604 351.648,328.329 349.057,328.031 348.800 C 327.904 348.690,327.350 347.703,326.800 346.607 C 326.250 345.511,325.575 344.373,325.300 344.079 C 325.025 343.784,324.800 343.379,324.800 343.178 C 324.800 342.978,324.103 341.675,323.251 340.284 C 322.400 338.892,321.577 337.359,321.424 336.877 C 321.271 336.395,320.982 336.000,320.781 336.000 C 320.580 336.000,320.837 336.765,321.353 337.700 M309.727 338.101 C 309.125 339.429,308.375 341.617,307.996 343.149 C 307.812 343.891,307.468 344.692,307.231 344.929 C 306.994 345.166,306.814 345.819,306.832 346.380 C 306.849 346.941,306.952 347.130,307.061 346.800 C 307.170 346.470,307.420 345.840,307.618 345.400 C 307.815 344.960,308.355 343.430,308.817 342.000 C 309.279 340.570,309.855 338.995,310.096 338.501 C 310.337 338.006,310.445 337.511,310.335 337.401 C 310.225 337.291,309.951 337.606,309.727 338.101 M306.032 348.339 C 305.795 348.784,305.600 349.609,305.600 350.174 C 305.600 350.738,305.428 351.200,305.218 351.200 C 305.008 351.200,304.713 351.875,304.561 352.700 C 304.410 353.525,304.042 354.555,303.743 354.989 C 303.444 355.423,303.208 356.233,303.218 356.789 C 303.235 357.795,304.067 356.075,304.662 353.800 C 304.777 353.360,305.103 352.460,305.387 351.800 C 306.642 348.875,307.122 346.303,306.032 348.339 M329.648 352.668 C 329.732 352.877,330.510 354.247,331.377 355.713 C 333.113 358.648,333.796 359.184,332.208 356.365 C 331.661 355.394,331.041 354.212,330.831 353.739 C 330.464 352.911,329.337 351.891,329.648 352.668 M302.432 358.739 C 302.195 359.184,302.000 359.809,302.000 360.128 C 302.000 360.447,301.731 361.224,301.402 361.854 C 300.774 363.060,300.590 365.423,301.100 365.738 C 301.265 365.840,301.412 365.176,301.427 364.262 C 301.453 362.721,301.976 360.849,302.881 359.061 C 303.397 358.043,302.969 357.737,302.432 358.739 M333.200 358.984 C 333.200 359.112,333.611 359.887,334.114 360.708 C 335.122 362.353,336.025 364.170,336.446 365.400 C 336.680 366.081,336.726 366.040,336.760 365.124 C 336.782 364.532,336.620 363.936,336.401 363.800 C 336.181 363.665,335.540 362.578,334.976 361.385 C 334.075 359.481,333.200 358.298,333.200 358.984 " stroke="none" fill="#88789c" fill-rule="evenodd"></path><path id="path3" d="M42.988 358.020 C 42.607 358.635,43.128 359.032,43.642 358.518 C 43.929 358.231,43.936 358.007,43.662 357.839 C 43.439 357.700,43.135 357.782,42.988 358.020 " stroke="none" fill="#7c6c94" fill-rule="evenodd"></path><path id="path4" d="M198.899 3.261 C 198.588 3.572,198.563 3.957,198.820 4.438 C 199.063 4.891,199.166 81.068,199.102 212.577 C 199.046 326.659,199.135 420.000,199.299 420.000 C 199.464 420.000,199.644 326.130,199.699 211.400 C 199.755 96.670,199.701 2.800,199.580 2.800 C 199.459 2.800,199.152 3.008,198.899 3.261 M291.299 165.420 C 291.223 262.791,291.091 291.549,290.720 291.920 C 290.355 292.285,290.353 292.400,290.712 292.400 C 291.605 292.400,291.618 290.258,291.509 165.000 L 291.399 39.400 291.299 165.420 M264.997 172.400 C 264.997 241.150,265.044 269.275,265.100 234.900 C 265.156 200.525,265.156 144.275,265.100 109.900 C 265.044 75.525,264.997 103.650,264.997 172.400 M62.012 57.600 C 62.012 58.290,62.680 59.470,62.911 59.188 C 62.996 59.085,62.829 58.550,62.539 58.000 C 62.248 57.449,62.012 57.269,62.012 57.600 M97.664 58.820 C 97.629 59.601,97.387 60.453,97.127 60.713 C 96.866 60.974,96.762 61.295,96.894 61.428 C 97.351 61.884,98.048 59.960,97.888 58.682 L 97.728 57.400 97.664 58.820 M63.206 60.051 C 63.203 60.409,63.452 60.911,63.761 61.167 C 64.069 61.423,64.433 62.075,64.568 62.616 C 64.704 63.157,64.978 63.600,65.177 63.600 C 65.504 63.600,65.158 62.817,63.706 60.267 C 63.336 59.618,63.210 59.563,63.206 60.051 M96.329 63.000 C 96.198 63.440,95.958 64.160,95.796 64.600 C 95.544 65.286,95.598 65.270,96.179 64.493 C 96.551 63.993,96.791 63.273,96.712 62.893 C 96.587 62.292,96.536 62.306,96.329 63.000 M65.600 64.247 C 65.600 64.467,65.864 64.996,66.187 65.424 C 66.510 65.851,66.775 66.020,66.775 65.800 C 66.775 65.580,66.510 65.051,66.187 64.624 C 65.864 64.196,65.600 64.027,65.600 64.247 M355.200 172.400 C 355.200 231.360,355.065 279.608,354.900 279.618 C 354.735 279.627,353.700 279.901,352.600 280.225 C 350.882 280.732,350.810 280.790,352.090 280.634 C 352.909 280.535,354.079 280.214,354.690 279.921 L 355.800 279.389 355.901 172.295 C 355.968 100.967,355.868 65.200,355.601 65.200 C 355.334 65.200,355.200 101.069,355.200 172.400 M95.132 66.400 C 95.006 66.950,94.778 67.760,94.626 68.200 C 94.474 68.640,94.642 68.495,94.999 67.877 C 95.357 67.259,95.585 66.449,95.505 66.077 C 95.402 65.594,95.295 65.687,95.132 66.400 M66.809 66.494 C 66.804 66.656,67.340 67.666,68.000 68.738 C 68.660 69.811,69.200 70.872,69.200 71.095 C 69.200 71.319,69.470 71.726,69.800 72.000 C 70.215 72.344,70.400 72.359,70.400 72.049 C 70.400 71.802,70.220 71.600,70.000 71.600 C 69.780 71.600,69.596 71.375,69.591 71.100 C 69.581 70.565,66.824 66.000,66.809 66.494 M94.046 69.876 C 94.021 70.358,93.820 70.864,93.600 71.000 C 93.380 71.136,93.200 71.457,93.200 71.713 C 93.200 71.969,93.483 71.775,93.828 71.282 C 94.173 70.789,94.374 70.073,94.274 69.693 C 94.137 69.167,94.082 69.211,94.046 69.876 M336.498 176.676 C 336.444 235.018,336.535 282.836,336.700 282.938 C 336.971 283.106,336.970 211.644,336.698 109.000 C 336.642 87.880,336.552 118.334,336.498 176.676 M70.408 72.901 C 70.403 73.067,70.937 74.057,71.592 75.101 C 72.248 76.146,72.788 76.864,72.792 76.699 C 72.797 76.533,72.263 75.543,71.608 74.499 C 70.952 73.454,70.412 72.736,70.408 72.901 M92.715 73.410 C 92.592 73.845,92.369 74.560,92.220 75.000 C 92.071 75.440,92.242 75.294,92.600 74.676 C 92.958 74.058,93.181 73.342,93.095 73.086 C 93.010 72.830,92.839 72.976,92.715 73.410 M91.300 77.270 C 90.616 79.166,90.676 79.648,91.417 78.225 C 91.754 77.579,91.978 76.788,91.915 76.467 C 91.852 76.146,91.575 76.507,91.300 77.270 M72.800 77.373 C 72.800 77.499,73.353 78.457,74.029 79.501 C 75.303 81.469,75.385 81.446,74.392 79.400 C 73.819 78.220,72.800 76.922,72.800 77.373 M90.315 80.210 C 90.192 80.645,89.969 81.360,89.820 81.800 C 89.671 82.240,89.842 82.094,90.200 81.476 C 90.558 80.858,90.781 80.142,90.695 79.886 C 90.610 79.630,90.439 79.776,90.315 80.210 M75.200 81.887 C 75.200 82.132,75.335 82.393,75.500 82.467 C 75.665 82.540,76.144 83.276,76.564 84.102 C 76.985 84.929,77.387 85.546,77.458 85.475 C 77.628 85.306,76.128 82.368,75.605 81.845 C 75.332 81.572,75.200 81.585,75.200 81.887 M88.837 84.311 C 88.553 84.998,88.414 85.793,88.528 86.080 C 88.646 86.374,88.751 86.244,88.768 85.780 C 88.786 85.329,89.000 84.760,89.245 84.515 C 89.490 84.270,89.614 83.843,89.522 83.566 C 89.430 83.289,89.121 83.624,88.837 84.311 M87.665 87.817 C 87.409 88.378,87.207 89.054,87.216 89.319 C 87.224 89.583,87.497 89.188,87.822 88.439 C 88.505 86.865,88.361 86.290,87.665 87.817 M79.604 89.400 C 79.605 89.620,79.963 90.340,80.400 91.000 C 81.436 92.564,81.437 92.008,80.401 90.310 C 79.962 89.589,79.604 89.180,79.604 89.400 M86.437 91.111 C 86.153 91.798,86.014 92.593,86.128 92.880 C 86.246 93.174,86.351 93.044,86.368 92.580 C 86.386 92.129,86.600 91.560,86.845 91.315 C 87.090 91.070,87.214 90.643,87.122 90.366 C 87.030 90.089,86.721 90.424,86.437 91.111 M81.936 93.809 C 82.283 94.574,82.695 95.200,82.853 95.200 C 83.187 95.200,82.101 92.910,81.628 92.617 C 81.451 92.508,81.589 93.044,81.936 93.809 M85.285 94.413 C 85.018 94.840,84.801 95.417,84.802 95.695 C 84.804 95.973,85.077 95.678,85.410 95.040 C 86.103 93.711,86.011 93.250,85.285 94.413 M133.083 125.850 C 132.950 125.983,132.246 126.247,131.520 126.435 C 130.436 126.717,130.539 126.740,132.099 126.565 L 133.999 126.351 134.100 251.276 L 134.201 376.200 134.301 251.349 C 134.402 123.875,134.408 124.525,133.083 125.850 M125.800 127.446 C 124.230 127.998,124.226 128.004,125.600 127.759 C 129.032 127.149,129.915 126.892,128.600 126.888 C 127.940 126.886,126.680 127.137,125.800 127.446 M121.087 128.246 C 120.951 128.382,120.246 128.647,119.520 128.835 C 118.296 129.153,118.287 129.166,119.400 129.016 C 121.654 128.713,123.555 128.088,122.367 128.041 C 121.798 128.018,121.222 128.111,121.087 128.246 M114.400 129.600 C 113.605 130.114,114.604 130.114,115.800 129.600 L 116.600 129.256 115.800 129.234 C 115.360 129.222,114.730 129.387,114.400 129.600 M111.700 130.276 C 112.085 130.376,112.715 130.376,113.100 130.276 C 113.485 130.175,113.170 130.093,112.400 130.093 C 111.630 130.093,111.315 130.175,111.700 130.276 M108.041 131.100 L 107.193 131.800 107.097 257.700 C 107.043 326.945,107.133 383.600,107.296 383.600 C 107.459 383.600,107.595 327.048,107.598 257.929 C 107.604 120.568,107.426 131.130,109.742 130.677 L 110.600 130.509 109.744 130.454 C 109.274 130.425,108.507 130.715,108.041 131.100 M61.500 140.012 L 62.400 140.374 62.499 246.887 L 62.599 353.400 62.700 247.042 C 62.805 137.242,62.836 139.564,61.251 139.625 C 60.810 139.643,60.891 139.768,61.500 140.012 M58.600 140.400 L 57.800 140.744 58.600 140.766 C 59.040 140.778,59.670 140.613,60.000 140.400 C 60.795 139.886,59.796 139.886,58.600 140.400 M53.000 141.446 C 51.430 141.998,51.426 142.004,52.800 141.759 C 56.232 141.149,57.115 140.892,55.800 140.888 C 55.140 140.886,53.880 141.137,53.000 141.446 M46.800 142.634 C 45.525 143.156,45.507 143.184,46.600 142.947 C 47.260 142.804,48.430 142.553,49.200 142.390 C 50.561 142.100,50.567 142.092,49.400 142.076 C 48.740 142.068,47.570 142.319,46.800 142.634 M346.400 281.420 C 345.410 281.704,344.960 281.942,345.400 281.950 C 345.840 281.958,347.100 281.715,348.200 281.409 C 349.300 281.104,349.750 280.865,349.200 280.879 C 348.650 280.893,347.390 281.136,346.400 281.420 M341.200 282.400 C 340.405 282.914,341.404 282.914,342.600 282.400 L 343.400 282.056 342.600 282.034 C 342.160 282.022,341.530 282.187,341.200 282.400 M338.305 283.083 C 338.802 283.179,339.522 283.175,339.905 283.075 C 340.287 282.975,339.880 282.896,339.000 282.901 C 338.120 282.905,337.807 282.987,338.305 283.083 M288.100 292.676 C 288.485 292.776,289.115 292.776,289.500 292.676 C 289.885 292.575,289.570 292.493,288.800 292.493 C 288.030 292.493,287.715 292.575,288.100 292.676 M285.400 293.200 C 284.896 293.417,284.822 293.544,285.200 293.544 C 285.530 293.544,286.160 293.389,286.600 293.200 C 287.104 292.983,287.178 292.856,286.800 292.856 C 286.470 292.856,285.840 293.011,285.400 293.200 M279.800 294.186 C 278.245 294.898,278.886 294.907,281.400 294.209 C 283.003 293.764,283.162 293.652,282.200 293.645 C 281.540 293.640,280.460 293.883,279.800 294.186 M273.400 295.446 C 271.830 295.998,271.826 296.004,273.200 295.759 C 276.632 295.149,277.515 294.892,276.200 294.888 C 275.540 294.886,274.280 295.137,273.400 295.446 M267.200 296.633 C 265.665 297.261,265.676 297.260,269.800 296.424 L 271.400 296.100 270.000 296.080 C 269.230 296.070,267.970 296.319,267.200 296.633 M313.828 328.065 C 313.480 328.761,313.257 329.390,313.331 329.464 C 313.405 329.538,313.720 329.104,314.032 328.499 C 314.344 327.895,314.779 327.268,314.999 327.106 C 315.253 326.920,315.227 326.810,314.929 326.806 C 314.670 326.803,314.175 327.369,313.828 328.065 M316.409 329.818 C 317.117 331.128,317.945 332.555,318.248 332.989 C 319.233 334.398,318.831 333.288,317.600 331.200 C 316.940 330.081,316.400 329.015,316.400 328.831 C 316.400 328.648,316.112 328.259,315.761 327.967 C 315.409 327.676,315.701 328.509,316.409 329.818 M312.715 331.010 C 312.592 331.445,312.369 332.160,312.220 332.600 C 312.071 333.040,312.242 332.894,312.600 332.276 C 312.958 331.658,313.181 330.942,313.095 330.686 C 313.010 330.430,312.839 330.576,312.715 331.010 M311.300 335.093 C 310.588 336.611,310.684 337.233,311.413 335.833 C 311.748 335.191,311.972 334.522,311.911 334.346 C 311.850 334.170,311.575 334.506,311.300 335.093 M310.315 337.810 C 310.192 338.245,309.969 338.960,309.820 339.400 C 309.671 339.840,309.842 339.694,310.200 339.076 C 310.558 338.458,310.781 337.742,310.695 337.486 C 310.610 337.230,310.439 337.376,310.315 337.810 M308.866 341.997 C 308.573 342.658,308.424 343.425,308.535 343.700 C 308.646 343.975,308.751 343.831,308.768 343.380 C 308.786 342.929,309.000 342.360,309.245 342.115 C 309.490 341.870,309.624 341.473,309.544 341.232 C 309.464 340.991,309.158 341.335,308.866 341.997 M323.200 341.721 C 323.200 342.172,324.871 345.197,325.249 345.431 C 325.451 345.555,325.138 344.789,324.553 343.729 C 323.394 341.625,323.200 341.337,323.200 341.721 M307.685 345.373 C 306.986 346.908,307.092 347.617,307.813 346.233 C 308.148 345.591,308.365 344.896,308.296 344.688 C 308.227 344.480,307.952 344.788,307.685 345.373 M306.466 348.797 C 306.173 349.458,306.024 350.225,306.135 350.500 C 306.246 350.775,306.351 350.631,306.368 350.180 C 306.386 349.729,306.600 349.160,306.845 348.915 C 307.090 348.670,307.224 348.273,307.144 348.032 C 307.064 347.791,306.758 348.135,306.466 348.797 M326.800 348.484 C 326.800 348.824,327.099 349.349,327.465 349.651 C 328.074 350.153,328.087 350.115,327.611 349.200 C 326.914 347.859,326.800 347.758,326.800 348.484 M305.237 352.311 C 304.953 352.998,304.814 353.793,304.928 354.080 C 305.046 354.374,305.151 354.244,305.168 353.780 C 305.186 353.329,305.400 352.760,305.645 352.515 C 305.890 352.270,306.014 351.843,305.922 351.566 C 305.830 351.289,305.521 351.624,305.237 352.311 M330.445 355.024 C 330.752 355.862,333.757 360.776,333.885 360.648 C 333.957 360.576,333.310 359.308,332.446 357.830 C 330.962 355.290,330.102 354.084,330.445 355.024 M303.273 357.900 C 302.474 360.193,302.283 361.608,303.016 359.800 C 303.729 358.044,304.177 356.400,303.945 356.400 C 303.863 356.400,303.561 357.075,303.273 357.900 M42.228 357.955 C 42.107 358.150,42.281 358.535,42.614 358.811 C 43.123 359.234,43.175 359.199,42.941 358.591 C 42.736 358.055,42.801 357.953,43.194 358.196 C 43.546 358.414,43.628 358.369,43.438 358.062 C 43.098 357.512,42.533 357.462,42.228 357.955 M334.008 361.308 C 334.003 361.477,334.430 362.297,334.956 363.130 C 335.481 363.962,336.000 364.994,336.109 365.422 C 336.276 366.078,336.314 366.090,336.354 365.499 C 336.379 365.113,335.863 363.943,335.208 362.899 C 334.552 361.854,334.012 361.139,334.008 361.308 M301.293 364.400 C 301.293 365.170,301.375 365.485,301.476 365.100 C 301.576 364.715,301.576 364.085,301.476 363.700 C 301.375 363.315,301.293 363.630,301.293 364.400 " stroke="none" fill="#7c6494" fill-rule="evenodd"></path></g></svg>