<svg width="247" height="120" viewBox="0 0 247 120" fill="none" xmlns="http://www.w3.org/2000/svg">
<path d="M247 46.8408V23.5337C246.993 17.2942 244.512 11.3123 240.102 6.90037C235.691 2.48843 229.711 0.00681235 223.473 0L188.79 0C182.637 0.00946451 176.731 2.42876 172.339 6.73983C167.946 11.0509 165.416 16.911 165.289 23.0652C165.172 16.9151 162.65 11.0558 158.265 6.74395C153.879 2.43207 147.979 0.0110038 141.829 0L81.6798 0V21.8608C81.2485 15.9265 78.5895 10.3749 74.2363 6.32019C69.8831 2.2655 64.1579 0.00772963 58.2097 0L23.5268 0C17.2892 0.00681235 11.309 2.48843 6.89835 6.90037C2.4877 11.3123 0.00681035 17.2942 0 23.5337L0 65.3249L28.0911 73.1386H0V96.4612C0.00544831 102.702 2.48574 108.685 6.89653 113.098C11.3073 117.511 17.2883 119.993 23.5268 120H58.2457C64.1121 119.992 69.7647 117.796 74.0985 113.841C78.4322 109.885 81.1354 104.456 81.6798 98.6128V120H141.829C147.807 119.992 153.558 117.712 157.917 113.621C162.277 109.531 164.92 103.936 165.31 97.9694C165.7 103.936 168.343 109.531 172.702 113.621C177.062 117.712 182.813 119.992 188.79 120H223.473C229.712 119.993 235.693 117.511 240.103 113.098C244.514 108.685 246.995 102.702 247 96.4612V73.1386H210.814V46.8408H247Z" fill="white"/>
<path d="M217.715 80.1493H239.991V96.4612C239.992 98.6319 239.565 100.781 238.735 102.787C237.905 104.793 236.688 106.615 235.153 108.15C233.619 109.685 231.797 110.902 229.792 111.733C227.787 112.563 225.638 112.99 223.468 112.989H188.79C186.621 112.989 184.472 112.562 182.468 111.731C180.464 110.9 178.642 109.683 177.108 108.148C175.575 106.613 174.358 104.791 173.528 102.786C172.698 100.781 172.272 98.6315 172.272 96.4612V64.2285C179.696 64.383 187.121 64.5786 194.549 64.8153V93.8978C194.549 94.9426 194.963 95.9447 195.701 96.684C196.439 97.4233 197.441 97.8393 198.485 97.8407H213.773C214.819 97.8407 215.821 97.4253 216.561 96.6859C217.3 95.9464 217.715 94.9435 217.715 93.8978V80.1493ZM152.095 63.894L158.353 69.3707V96.4612C158.353 100.845 156.612 105.049 153.513 108.148C150.414 111.248 146.212 112.989 141.829 112.989H88.6833V63.9403C94.4775 63.8682 100.272 63.8168 106.066 63.7859C111.86 63.755 117.675 63.7361 123.51 63.7292C127.709 63.7292 131.91 63.7413 136.112 63.7653C141.438 63.7962 146.764 63.827 152.095 63.894ZM136.071 75.7329C136.071 74.6885 135.657 73.6869 134.918 72.9485C134.18 72.21 133.179 71.7951 132.135 71.7951H110.965V97.851H132.135C132.652 97.8517 133.164 97.7503 133.642 97.5526C134.12 97.355 134.554 97.065 134.92 96.6992C135.285 96.3334 135.575 95.899 135.773 95.421C135.971 94.9429 136.072 94.4306 136.071 93.9133V75.7329ZM26.465 65.4382L52.4875 72.6496V93.8978C52.4882 94.4154 52.3869 94.928 52.1893 95.4063C51.9918 95.8846 51.7019 96.3193 51.3363 96.6855C50.9707 97.0517 50.5365 97.3422 50.0586 97.5405C49.5806 97.7387 49.0683 97.8407 48.5509 97.8407H33.2215C32.177 97.8393 31.1757 97.4233 30.4376 96.684C29.6995 95.9447 29.2849 94.9426 29.2849 93.8978V80.1493H7.00348V96.4612C7.00348 100.845 8.74432 105.049 11.843 108.148C14.9417 111.248 19.1445 112.989 23.5268 112.989H58.2457C60.4156 112.989 62.5642 112.562 64.5689 111.731C66.5736 110.901 68.3951 109.683 69.9294 108.148C71.4637 106.614 72.6808 104.792 73.5112 102.786C74.3416 100.781 74.769 98.6317 74.769 96.4612V64.141C58.6625 64.4259 42.5629 64.8497 26.4702 65.4124L26.465 65.4382Z" fill="#001644"/>
<path d="M137.666 46.9129L157.221 20.6614C157.398 21.6191 157.489 22.5906 157.493 23.5645V42.8671L138.86 49.0954C138.511 48.3421 138.113 47.6129 137.666 46.9129ZM88.6833 43.7884L104.507 49.0954C104.858 48.3431 105.256 47.6141 105.701 46.9129L88.6833 24.069V43.7884ZM107.666 7.01068L120.129 38.1984C120.644 38.1573 121.159 38.1212 121.673 38.1212C122.188 38.1212 122.702 38.1573 123.217 38.1984L135.68 7.01068H107.666ZM194.549 57.8407V26.1022C194.549 25.0574 194.963 24.0553 195.701 23.316C196.439 22.5767 197.441 22.1607 198.485 22.1593H213.815C214.332 22.1593 214.844 22.2613 215.322 22.4595C215.8 22.6578 216.234 22.9483 216.6 23.3145C216.966 23.6807 217.255 24.1154 217.453 24.5937C217.65 25.072 217.752 25.5846 217.751 26.1022V39.8507H239.991V23.5337C239.991 21.3634 239.564 19.2144 238.734 17.2094C237.903 15.2044 236.686 13.3827 235.152 11.8483C233.617 10.314 231.796 9.09699 229.791 8.26694C227.786 7.43689 225.638 7.01001 223.468 7.01068H188.79C184.409 7.01068 180.208 8.75149 177.11 11.8501C174.013 14.9488 172.272 19.1515 172.272 23.5337V56.3994C179.696 56.8421 187.121 57.3225 194.549 57.8407ZM130.776 40.4427C131.556 40.8768 132.304 41.3653 133.015 41.9045L156.979 19.4467C156.071 15.894 154.008 12.7441 151.115 10.4927C148.221 8.24137 144.662 7.01643 140.996 7.01068H137.08L130.776 40.4427ZM157.509 45.1165L140.888 54.778C144.629 54.9479 148.37 55.1075 152.111 55.2928L157.509 50.6241V45.1165ZM102.562 54.8244L88.6679 46.7585V55.4523C93.3094 55.2361 97.9355 55.0148 102.562 54.8244ZM110.352 41.9045C111.065 41.3652 111.815 40.8767 112.596 40.4427L106.303 7.01068H88.6833V21.6188L110.352 41.9045ZM63.1291 56.7598L29.2849 47.3556V26.097C29.2863 25.0531 29.7015 24.0523 30.4394 23.3141C31.1774 22.576 32.1779 22.1607 33.2215 22.1593H48.5509C49.595 22.1593 50.5963 22.5742 51.3345 23.3126C52.0728 24.0511 52.4875 25.0527 52.4875 26.097V39.8507H74.7278V23.5337C74.7278 21.3634 74.3004 19.2144 73.4699 17.2094C72.6395 15.2044 71.4223 13.3827 69.8879 11.8483C68.3535 10.314 66.532 9.09699 64.5273 8.26694C62.5227 7.43689 60.3741 7.01001 58.2045 7.01068H23.5268C19.1454 7.01068 14.9434 8.75133 11.8449 11.8498C8.74629 14.9483 7.00484 19.151 7.00348 23.5337V60.4916C25.7034 59.0572 44.412 57.8132 63.1291 56.7598Z" fill="#FDB515"/>
</svg>
